G04 Layer_Color=32896*
%FSLAX24Y24*%
%MOIN*%
G70*
G01*
G75*
%ADD12C,0.0100*%
%ADD26C,0.0080*%
%ADD38C,0.0079*%
G54D12*
X9027Y100675D02*
Y100075D01*
X9327D01*
X9427Y100175D01*
Y100275D01*
X9327Y100375D01*
X9027D01*
X9327D01*
X9427Y100475D01*
Y100575D01*
X9327Y100675D01*
X9027D01*
X9727Y100075D02*
X9926D01*
X10026Y100175D01*
Y100375D01*
X9926Y100475D01*
X9727D01*
X9627Y100375D01*
Y100175D01*
X9727Y100075D01*
X10326Y100575D02*
Y100475D01*
X10226D01*
X10426D01*
X10326D01*
Y100175D01*
X10426Y100075D01*
X10826Y100575D02*
Y100475D01*
X10726D01*
X10926D01*
X10826D01*
Y100175D01*
X10926Y100075D01*
X11326D02*
X11526D01*
X11626Y100175D01*
Y100375D01*
X11526Y100475D01*
X11326D01*
X11226Y100375D01*
Y100175D01*
X11326Y100075D01*
X11826D02*
Y100475D01*
X11926D01*
X12026Y100375D01*
Y100075D01*
Y100375D01*
X12126Y100475D01*
X12226Y100375D01*
Y100075D01*
X13425Y100575D02*
X13325Y100675D01*
X13125D01*
X13025Y100575D01*
Y100475D01*
X13125Y100375D01*
X13325D01*
X13425Y100275D01*
Y100175D01*
X13325Y100075D01*
X13125D01*
X13025Y100175D01*
X13625Y100075D02*
X13825D01*
X13725D01*
Y100475D01*
X13625D01*
X14125Y100075D02*
X14325D01*
X14225D01*
Y100675D01*
X14125D01*
X14625Y100075D02*
Y100675D01*
Y100275D02*
X14925Y100475D01*
X14625Y100275D02*
X14925Y100075D01*
X15225D02*
X15525D01*
X15625Y100175D01*
X15525Y100275D01*
X15325D01*
X15225Y100375D01*
X15325Y100475D01*
X15625D01*
X16224D02*
X15925D01*
X15825Y100375D01*
Y100175D01*
X15925Y100075D01*
X16224D01*
X16424Y100475D02*
Y100075D01*
Y100275D01*
X16524Y100375D01*
X16624Y100475D01*
X16724D01*
X17324Y100075D02*
X17124D01*
X17024Y100175D01*
Y100375D01*
X17124Y100475D01*
X17324D01*
X17424Y100375D01*
Y100275D01*
X17024D01*
X17924Y100075D02*
X17724D01*
X17624Y100175D01*
Y100375D01*
X17724Y100475D01*
X17924D01*
X18024Y100375D01*
Y100275D01*
X17624D01*
X18224Y100075D02*
Y100475D01*
X18524D01*
X18624Y100375D01*
Y100075D01*
G54D26*
X31427Y7350D02*
X31277Y7650D01*
Y7050D02*
X31427Y7350D01*
X27677D02*
X27527Y7650D01*
Y7050D02*
X27677Y7350D01*
X31427Y18010D02*
X31277Y18310D01*
Y17710D02*
X31427Y18010D01*
X27677D02*
X27527Y18310D01*
Y17710D02*
X27677Y18010D01*
X31427Y28670D02*
X31277Y28970D01*
Y28370D02*
X31427Y28670D01*
X27677D02*
X27527Y28970D01*
Y28370D02*
X27677Y28670D01*
X31427Y39330D02*
X31277Y39630D01*
Y39030D02*
X31427Y39330D01*
X27677D02*
X27527Y39630D01*
Y39030D02*
X27677Y39330D01*
X31427Y49990D02*
X31277Y50290D01*
Y49690D02*
X31427Y49990D01*
X27677D02*
X27527Y50290D01*
Y49690D02*
X27677Y49990D01*
X31427Y60650D02*
X31277Y60950D01*
Y60350D02*
X31427Y60650D01*
X27677D02*
X27527Y60950D01*
Y60350D02*
X27677Y60650D01*
X31427Y71310D02*
X31277Y71610D01*
Y71010D02*
X31427Y71310D01*
X27677D02*
X27527Y71610D01*
Y71010D02*
X27677Y71310D01*
X10407Y7350D02*
X10257Y7650D01*
Y7050D02*
X10407Y7350D01*
X6657D02*
X6507Y7650D01*
Y7050D02*
X6657Y7350D01*
X10407Y18010D02*
X10257Y18310D01*
Y17710D02*
X10407Y18010D01*
X6657D02*
X6507Y18310D01*
Y17710D02*
X6657Y18010D01*
X10407Y28670D02*
X10257Y28970D01*
Y28370D02*
X10407Y28670D01*
X6657D02*
X6507Y28970D01*
Y28370D02*
X6657Y28670D01*
X10407Y39330D02*
X10257Y39630D01*
Y39030D02*
X10407Y39330D01*
X6657D02*
X6507Y39630D01*
Y39030D02*
X6657Y39330D01*
X10407Y49990D02*
X10257Y50290D01*
Y49690D02*
X10407Y49990D01*
X6657D02*
X6507Y50290D01*
Y49690D02*
X6657Y49990D01*
X10407Y60650D02*
X10257Y60950D01*
Y60350D02*
X10407Y60650D01*
X6657D02*
X6507Y60950D01*
Y60350D02*
X6657Y60650D01*
X10407Y71310D02*
X10257Y71610D01*
Y71010D02*
X10407Y71310D01*
X6657D02*
X6507Y71610D01*
Y71010D02*
X6657Y71310D01*
G54D38*
X31277Y11850D02*
X29277D01*
X31277Y6850D02*
X29277D01*
X31277D02*
Y11850D01*
X29277Y6850D02*
Y11850D01*
X27527D02*
X25527D01*
X27527Y6850D02*
X25527D01*
X27527D02*
Y11850D01*
X25527Y6850D02*
Y11850D01*
X31277Y22510D02*
X29277D01*
X31277Y17510D02*
X29277D01*
X31277D02*
Y22510D01*
X29277Y17510D02*
Y22510D01*
X27527D02*
X25527D01*
X27527Y17510D02*
X25527D01*
X27527D02*
Y22510D01*
X25527Y17510D02*
Y22510D01*
X31277Y33170D02*
X29277D01*
X31277Y28170D02*
X29277D01*
X31277D02*
Y33170D01*
X29277Y28170D02*
Y33170D01*
X27527D02*
X25527D01*
X27527Y28170D02*
X25527D01*
X27527D02*
Y33170D01*
X25527Y28170D02*
Y33170D01*
X31277Y43830D02*
X29277D01*
X31277Y38830D02*
X29277D01*
X31277D02*
Y43830D01*
X29277Y38830D02*
Y43830D01*
X27527D02*
X25527D01*
X27527Y38830D02*
X25527D01*
X27527D02*
Y43830D01*
X25527Y38830D02*
Y43830D01*
X31277Y54490D02*
X29277D01*
X31277Y49490D02*
X29277D01*
X31277D02*
Y54490D01*
X29277Y49490D02*
Y54490D01*
X27527D02*
X25527D01*
X27527Y49490D02*
X25527D01*
X27527D02*
Y54490D01*
X25527Y49490D02*
Y54490D01*
X31277Y65150D02*
X29277D01*
X31277Y60150D02*
X29277D01*
X31277D02*
Y65150D01*
X29277Y60150D02*
Y65150D01*
X27527D02*
X25527D01*
X27527Y60150D02*
X25527D01*
X27527D02*
Y65150D01*
X25527Y60150D02*
Y65150D01*
X31277Y75810D02*
X29277D01*
X31277Y70810D02*
X29277D01*
X31277D02*
Y75810D01*
X29277Y70810D02*
Y75810D01*
X27527D02*
X25527D01*
X27527Y70810D02*
X25527D01*
X27527D02*
Y75810D01*
X25527Y70810D02*
Y75810D01*
X10257Y11850D02*
X8257D01*
X10257Y6850D02*
X8257D01*
X10257D02*
Y11850D01*
X8257Y6850D02*
Y11850D01*
X6507D02*
X4507D01*
X6507Y6850D02*
X4507D01*
X6507D02*
Y11850D01*
X4507Y6850D02*
Y11850D01*
X10257Y22510D02*
X8257D01*
X10257Y17510D02*
X8257D01*
X10257D02*
Y22510D01*
X8257Y17510D02*
Y22510D01*
X6507D02*
X4507D01*
X6507Y17510D02*
X4507D01*
X6507D02*
Y22510D01*
X4507Y17510D02*
Y22510D01*
X10257Y33170D02*
X8257D01*
X10257Y28170D02*
X8257D01*
X10257D02*
Y33170D01*
X8257Y28170D02*
Y33170D01*
X6507D02*
X4507D01*
X6507Y28170D02*
X4507D01*
X6507D02*
Y33170D01*
X4507Y28170D02*
Y33170D01*
X10257Y43830D02*
X8257D01*
X10257Y38830D02*
X8257D01*
X10257D02*
Y43830D01*
X8257Y38830D02*
Y43830D01*
X6507D02*
X4507D01*
X6507Y38830D02*
X4507D01*
X6507D02*
Y43830D01*
X4507Y38830D02*
Y43830D01*
X10257Y54490D02*
X8257D01*
X10257Y49490D02*
X8257D01*
X10257D02*
Y54490D01*
X8257Y49490D02*
Y54490D01*
X6507D02*
X4507D01*
X6507Y49490D02*
X4507D01*
X6507D02*
Y54490D01*
X4507Y49490D02*
Y54490D01*
X10257Y65150D02*
X8257D01*
X10257Y60150D02*
X8257D01*
X10257D02*
Y65150D01*
X8257Y60150D02*
Y65150D01*
X6507D02*
X4507D01*
X6507Y60150D02*
X4507D01*
X6507D02*
Y65150D01*
X4507Y60150D02*
Y65150D01*
X10257Y75810D02*
X8257D01*
X10257Y70810D02*
X8257D01*
X10257D02*
Y75810D01*
X8257Y70810D02*
Y75810D01*
X6507D02*
X4507D01*
X6507Y70810D02*
X4507D01*
X6507D02*
Y75810D01*
X4507Y70810D02*
Y75810D01*
M02*
