G04 Layer_Color=8421504*
%FSLAX24Y24*%
%MOIN*%
G70*
G01*
G75*
G04:AMPARAMS|DCode=11|XSize=78.7mil|YSize=78.7mil|CornerRadius=39.4mil|HoleSize=0mil|Usage=FLASHONLY|Rotation=90.000|XOffset=0mil|YOffset=0mil|HoleType=Round|Shape=RoundedRectangle|*
%AMROUNDEDRECTD11*
21,1,0.0787,0.0000,0,0,90.0*
21,1,0.0000,0.0787,0,0,90.0*
1,1,0.0787,0.0000,0.0000*
1,1,0.0787,0.0000,0.0000*
1,1,0.0787,0.0000,0.0000*
1,1,0.0787,0.0000,0.0000*
%
%ADD11ROUNDEDRECTD11*%
%ADD12C,0.0100*%
%ADD42P,0.0261X4X180.0*%
%ADD43O,0.0295X0.0090*%
%ADD44O,0.0090X0.0295*%
%ADD45R,0.0197X0.0078*%
%ADD46R,0.0059X0.0610*%
G04:AMPARAMS|DCode=47|XSize=20mil|YSize=22mil|CornerRadius=3.4mil|HoleSize=0mil|Usage=FLASHONLY|Rotation=90.000|XOffset=0mil|YOffset=0mil|HoleType=Round|Shape=RoundedRectangle|*
%AMROUNDEDRECTD47*
21,1,0.0200,0.0152,0,0,90.0*
21,1,0.0132,0.0220,0,0,90.0*
1,1,0.0068,0.0076,0.0066*
1,1,0.0068,0.0076,-0.0066*
1,1,0.0068,-0.0076,-0.0066*
1,1,0.0068,-0.0076,0.0066*
%
%ADD47ROUNDEDRECTD47*%
%ADD48R,0.0098X0.0157*%
G04:AMPARAMS|DCode=49|XSize=20mil|YSize=22mil|CornerRadius=3.4mil|HoleSize=0mil|Usage=FLASHONLY|Rotation=180.000|XOffset=0mil|YOffset=0mil|HoleType=Round|Shape=RoundedRectangle|*
%AMROUNDEDRECTD49*
21,1,0.0200,0.0152,0,0,180.0*
21,1,0.0132,0.0220,0,0,180.0*
1,1,0.0068,-0.0066,0.0076*
1,1,0.0068,0.0066,0.0076*
1,1,0.0068,0.0066,-0.0076*
1,1,0.0068,-0.0066,-0.0076*
%
%ADD49ROUNDEDRECTD49*%
%ADD50R,0.0157X0.0098*%
G36*
X41248Y69296D02*
X40960D01*
Y69579D01*
X41248D01*
Y69296D01*
D02*
G37*
G36*
X20228D02*
X19940D01*
Y69579D01*
X20228D01*
Y69296D01*
D02*
G37*
G36*
X40870Y69292D02*
X40586D01*
Y69579D01*
X40870D01*
Y69292D01*
D02*
G37*
G36*
X19850D02*
X19566D01*
Y69579D01*
X19850D01*
Y69292D01*
D02*
G37*
G36*
X41248Y68918D02*
X40964D01*
Y69205D01*
X41248D01*
Y68918D01*
D02*
G37*
G36*
X40874D02*
X40586D01*
Y69201D01*
X40874D01*
Y68918D01*
D02*
G37*
G36*
X20228D02*
X19944D01*
Y69205D01*
X20228D01*
Y68918D01*
D02*
G37*
G36*
X19854D02*
X19566D01*
Y69201D01*
X19854D01*
Y68918D01*
D02*
G37*
G36*
X40999Y67942D02*
X40907Y67942D01*
X40858Y67991D01*
X40858Y68024D01*
X40999D01*
Y67942D01*
D02*
G37*
G36*
X40672Y67991D02*
X40623Y67942D01*
X40531Y67942D01*
Y68024D01*
X40672D01*
X40672Y67991D01*
D02*
G37*
G36*
X19979Y67942D02*
X19887Y67942D01*
X19838Y67991D01*
X19838Y68024D01*
X19979D01*
Y67942D01*
D02*
G37*
G36*
X19652Y67991D02*
X19603Y67942D01*
X19511Y67942D01*
Y68024D01*
X19652D01*
X19652Y67991D01*
D02*
G37*
G36*
X40999Y67682D02*
X40858D01*
X40858Y67715D01*
X40907Y67764D01*
X40999Y67764D01*
Y67682D01*
D02*
G37*
G36*
X40623Y67764D02*
X40672Y67715D01*
X40672Y67682D01*
X40531D01*
Y67764D01*
X40623Y67764D01*
D02*
G37*
G36*
X19979Y67682D02*
X19838D01*
X19838Y67715D01*
X19887Y67764D01*
X19979Y67764D01*
Y67682D01*
D02*
G37*
G36*
X19603Y67764D02*
X19652Y67715D01*
X19652Y67682D01*
X19511D01*
Y67764D01*
X19603Y67764D01*
D02*
G37*
G36*
X41248Y58636D02*
X40960D01*
Y58919D01*
X41248D01*
Y58636D01*
D02*
G37*
G36*
X20228D02*
X19940D01*
Y58919D01*
X20228D01*
Y58636D01*
D02*
G37*
G36*
X40870Y58632D02*
X40586D01*
Y58919D01*
X40870D01*
Y58632D01*
D02*
G37*
G36*
X19850D02*
X19566D01*
Y58919D01*
X19850D01*
Y58632D01*
D02*
G37*
G36*
X41248Y58258D02*
X40964D01*
Y58545D01*
X41248D01*
Y58258D01*
D02*
G37*
G36*
X40874D02*
X40586D01*
Y58541D01*
X40874D01*
Y58258D01*
D02*
G37*
G36*
X20228D02*
X19944D01*
Y58545D01*
X20228D01*
Y58258D01*
D02*
G37*
G36*
X19854D02*
X19566D01*
Y58541D01*
X19854D01*
Y58258D01*
D02*
G37*
G36*
X40999Y57282D02*
X40907Y57282D01*
X40858Y57331D01*
X40858Y57364D01*
X40999D01*
Y57282D01*
D02*
G37*
G36*
X40672Y57331D02*
X40623Y57282D01*
X40531Y57282D01*
Y57364D01*
X40672D01*
X40672Y57331D01*
D02*
G37*
G36*
X19979Y57282D02*
X19887Y57282D01*
X19838Y57331D01*
X19838Y57364D01*
X19979D01*
Y57282D01*
D02*
G37*
G36*
X19652Y57331D02*
X19603Y57282D01*
X19511Y57282D01*
Y57364D01*
X19652D01*
X19652Y57331D01*
D02*
G37*
G36*
X40999Y57022D02*
X40858D01*
X40858Y57055D01*
X40907Y57104D01*
X40999Y57104D01*
Y57022D01*
D02*
G37*
G36*
X40623Y57104D02*
X40672Y57055D01*
X40672Y57022D01*
X40531D01*
Y57104D01*
X40623Y57104D01*
D02*
G37*
G36*
X19979Y57022D02*
X19838D01*
X19838Y57055D01*
X19887Y57104D01*
X19979Y57104D01*
Y57022D01*
D02*
G37*
G36*
X19603Y57104D02*
X19652Y57055D01*
X19652Y57022D01*
X19511D01*
Y57104D01*
X19603Y57104D01*
D02*
G37*
G36*
X41248Y47976D02*
X40960D01*
Y48259D01*
X41248D01*
Y47976D01*
D02*
G37*
G36*
X20228D02*
X19940D01*
Y48259D01*
X20228D01*
Y47976D01*
D02*
G37*
G36*
X40870Y47972D02*
X40586D01*
Y48259D01*
X40870D01*
Y47972D01*
D02*
G37*
G36*
X19850D02*
X19566D01*
Y48259D01*
X19850D01*
Y47972D01*
D02*
G37*
G36*
X41248Y47598D02*
X40964D01*
Y47885D01*
X41248D01*
Y47598D01*
D02*
G37*
G36*
X40874D02*
X40586D01*
Y47881D01*
X40874D01*
Y47598D01*
D02*
G37*
G36*
X20228D02*
X19944D01*
Y47885D01*
X20228D01*
Y47598D01*
D02*
G37*
G36*
X19854D02*
X19566D01*
Y47881D01*
X19854D01*
Y47598D01*
D02*
G37*
G36*
X40999Y46622D02*
X40907Y46622D01*
X40858Y46671D01*
X40858Y46704D01*
X40999D01*
Y46622D01*
D02*
G37*
G36*
X40672Y46671D02*
X40623Y46622D01*
X40531Y46622D01*
Y46704D01*
X40672D01*
X40672Y46671D01*
D02*
G37*
G36*
X19979Y46622D02*
X19887Y46622D01*
X19838Y46671D01*
X19838Y46704D01*
X19979D01*
Y46622D01*
D02*
G37*
G36*
X19652Y46671D02*
X19603Y46622D01*
X19511Y46622D01*
Y46704D01*
X19652D01*
X19652Y46671D01*
D02*
G37*
G36*
X40999Y46362D02*
X40858D01*
X40858Y46395D01*
X40907Y46444D01*
X40999Y46444D01*
Y46362D01*
D02*
G37*
G36*
X40623Y46444D02*
X40672Y46395D01*
X40672Y46362D01*
X40531D01*
Y46444D01*
X40623Y46444D01*
D02*
G37*
G36*
X19979Y46362D02*
X19838D01*
X19838Y46395D01*
X19887Y46444D01*
X19979Y46444D01*
Y46362D01*
D02*
G37*
G36*
X19603Y46444D02*
X19652Y46395D01*
X19652Y46362D01*
X19511D01*
Y46444D01*
X19603Y46444D01*
D02*
G37*
G36*
X41248Y37316D02*
X40960D01*
Y37599D01*
X41248D01*
Y37316D01*
D02*
G37*
G36*
X20228D02*
X19940D01*
Y37599D01*
X20228D01*
Y37316D01*
D02*
G37*
G36*
X40870Y37312D02*
X40586D01*
Y37599D01*
X40870D01*
Y37312D01*
D02*
G37*
G36*
X19850D02*
X19566D01*
Y37599D01*
X19850D01*
Y37312D01*
D02*
G37*
G36*
X41248Y36938D02*
X40964D01*
Y37225D01*
X41248D01*
Y36938D01*
D02*
G37*
G36*
X40874D02*
X40586D01*
Y37221D01*
X40874D01*
Y36938D01*
D02*
G37*
G36*
X20228D02*
X19944D01*
Y37225D01*
X20228D01*
Y36938D01*
D02*
G37*
G36*
X19854D02*
X19566D01*
Y37221D01*
X19854D01*
Y36938D01*
D02*
G37*
G36*
X40999Y35962D02*
X40907Y35962D01*
X40858Y36011D01*
X40858Y36044D01*
X40999D01*
Y35962D01*
D02*
G37*
G36*
X40672Y36011D02*
X40623Y35962D01*
X40531Y35962D01*
Y36044D01*
X40672D01*
X40672Y36011D01*
D02*
G37*
G36*
X19979Y35962D02*
X19887Y35962D01*
X19838Y36011D01*
X19838Y36044D01*
X19979D01*
Y35962D01*
D02*
G37*
G36*
X19652Y36011D02*
X19603Y35962D01*
X19511Y35962D01*
Y36044D01*
X19652D01*
X19652Y36011D01*
D02*
G37*
G36*
X40999Y35702D02*
X40858D01*
X40858Y35735D01*
X40907Y35784D01*
X40999Y35784D01*
Y35702D01*
D02*
G37*
G36*
X40623Y35784D02*
X40672Y35735D01*
X40672Y35702D01*
X40531D01*
Y35784D01*
X40623Y35784D01*
D02*
G37*
G36*
X19979Y35702D02*
X19838D01*
X19838Y35735D01*
X19887Y35784D01*
X19979Y35784D01*
Y35702D01*
D02*
G37*
G36*
X19603Y35784D02*
X19652Y35735D01*
X19652Y35702D01*
X19511D01*
Y35784D01*
X19603Y35784D01*
D02*
G37*
G36*
X41248Y26656D02*
X40960D01*
Y26939D01*
X41248D01*
Y26656D01*
D02*
G37*
G36*
X20228D02*
X19940D01*
Y26939D01*
X20228D01*
Y26656D01*
D02*
G37*
G36*
X40870Y26652D02*
X40586D01*
Y26939D01*
X40870D01*
Y26652D01*
D02*
G37*
G36*
X19850D02*
X19566D01*
Y26939D01*
X19850D01*
Y26652D01*
D02*
G37*
G36*
X41248Y26278D02*
X40964D01*
Y26565D01*
X41248D01*
Y26278D01*
D02*
G37*
G36*
X40874D02*
X40586D01*
Y26561D01*
X40874D01*
Y26278D01*
D02*
G37*
G36*
X20228D02*
X19944D01*
Y26565D01*
X20228D01*
Y26278D01*
D02*
G37*
G36*
X19854D02*
X19566D01*
Y26561D01*
X19854D01*
Y26278D01*
D02*
G37*
G36*
X40999Y25302D02*
X40907Y25302D01*
X40858Y25351D01*
X40858Y25384D01*
X40999D01*
Y25302D01*
D02*
G37*
G36*
X40672Y25351D02*
X40623Y25302D01*
X40531Y25302D01*
Y25384D01*
X40672D01*
X40672Y25351D01*
D02*
G37*
G36*
X19979Y25302D02*
X19887Y25302D01*
X19838Y25351D01*
X19838Y25384D01*
X19979D01*
Y25302D01*
D02*
G37*
G36*
X19652Y25351D02*
X19603Y25302D01*
X19511Y25302D01*
Y25384D01*
X19652D01*
X19652Y25351D01*
D02*
G37*
G36*
X40999Y25042D02*
X40858D01*
X40858Y25075D01*
X40907Y25124D01*
X40999Y25124D01*
Y25042D01*
D02*
G37*
G36*
X40623Y25124D02*
X40672Y25075D01*
X40672Y25042D01*
X40531D01*
Y25124D01*
X40623Y25124D01*
D02*
G37*
G36*
X19979Y25042D02*
X19838D01*
X19838Y25075D01*
X19887Y25124D01*
X19979Y25124D01*
Y25042D01*
D02*
G37*
G36*
X19603Y25124D02*
X19652Y25075D01*
X19652Y25042D01*
X19511D01*
Y25124D01*
X19603Y25124D01*
D02*
G37*
G36*
X41248Y15996D02*
X40960D01*
Y16279D01*
X41248D01*
Y15996D01*
D02*
G37*
G36*
X20228D02*
X19940D01*
Y16279D01*
X20228D01*
Y15996D01*
D02*
G37*
G36*
X40870Y15992D02*
X40586D01*
Y16279D01*
X40870D01*
Y15992D01*
D02*
G37*
G36*
X19850D02*
X19566D01*
Y16279D01*
X19850D01*
Y15992D01*
D02*
G37*
G36*
X41248Y15618D02*
X40964D01*
Y15905D01*
X41248D01*
Y15618D01*
D02*
G37*
G36*
X40874D02*
X40586D01*
Y15901D01*
X40874D01*
Y15618D01*
D02*
G37*
G36*
X20228D02*
X19944D01*
Y15905D01*
X20228D01*
Y15618D01*
D02*
G37*
G36*
X19854D02*
X19566D01*
Y15901D01*
X19854D01*
Y15618D01*
D02*
G37*
G36*
X40999Y14642D02*
X40907Y14642D01*
X40858Y14691D01*
X40858Y14724D01*
X40999D01*
Y14642D01*
D02*
G37*
G36*
X40672Y14691D02*
X40623Y14642D01*
X40531Y14642D01*
Y14724D01*
X40672D01*
X40672Y14691D01*
D02*
G37*
G36*
X19979Y14642D02*
X19887Y14642D01*
X19838Y14691D01*
X19838Y14724D01*
X19979D01*
Y14642D01*
D02*
G37*
G36*
X19652Y14691D02*
X19603Y14642D01*
X19511Y14642D01*
Y14724D01*
X19652D01*
X19652Y14691D01*
D02*
G37*
G36*
X40999Y14382D02*
X40858D01*
X40858Y14415D01*
X40907Y14464D01*
X40999Y14464D01*
Y14382D01*
D02*
G37*
G36*
X40623Y14464D02*
X40672Y14415D01*
X40672Y14382D01*
X40531D01*
Y14464D01*
X40623Y14464D01*
D02*
G37*
G36*
X19979Y14382D02*
X19838D01*
X19838Y14415D01*
X19887Y14464D01*
X19979Y14464D01*
Y14382D01*
D02*
G37*
G36*
X19603Y14464D02*
X19652Y14415D01*
X19652Y14382D01*
X19511D01*
Y14464D01*
X19603Y14464D01*
D02*
G37*
G36*
X41248Y5336D02*
X40960D01*
Y5619D01*
X41248D01*
Y5336D01*
D02*
G37*
G36*
X20228D02*
X19940D01*
Y5619D01*
X20228D01*
Y5336D01*
D02*
G37*
G36*
X40870Y5332D02*
X40586D01*
Y5619D01*
X40870D01*
Y5332D01*
D02*
G37*
G36*
X19850D02*
X19566D01*
Y5619D01*
X19850D01*
Y5332D01*
D02*
G37*
G36*
X41248Y4958D02*
X40964D01*
Y5245D01*
X41248D01*
Y4958D01*
D02*
G37*
G36*
X40874D02*
X40586D01*
Y5241D01*
X40874D01*
Y4958D01*
D02*
G37*
G36*
X20228D02*
X19944D01*
Y5245D01*
X20228D01*
Y4958D01*
D02*
G37*
G36*
X19854D02*
X19566D01*
Y5241D01*
X19854D01*
Y4958D01*
D02*
G37*
G36*
X40999Y3982D02*
X40907Y3982D01*
X40858Y4031D01*
X40858Y4064D01*
X40999D01*
Y3982D01*
D02*
G37*
G36*
X40672Y4031D02*
X40623Y3982D01*
X40531Y3982D01*
Y4064D01*
X40672D01*
X40672Y4031D01*
D02*
G37*
G36*
X19979Y3982D02*
X19887Y3982D01*
X19838Y4031D01*
X19838Y4064D01*
X19979D01*
Y3982D01*
D02*
G37*
G36*
X19652Y4031D02*
X19603Y3982D01*
X19511Y3982D01*
Y4064D01*
X19652D01*
X19652Y4031D01*
D02*
G37*
G36*
X40999Y3722D02*
X40858D01*
X40858Y3755D01*
X40907Y3804D01*
X40999Y3804D01*
Y3722D01*
D02*
G37*
G36*
X40623Y3804D02*
X40672Y3755D01*
X40672Y3722D01*
X40531D01*
Y3804D01*
X40623Y3804D01*
D02*
G37*
G36*
X19979Y3722D02*
X19838D01*
X19838Y3755D01*
X19887Y3804D01*
X19979Y3804D01*
Y3722D01*
D02*
G37*
G36*
X19603Y3804D02*
X19652Y3755D01*
X19652Y3722D01*
X19511D01*
Y3804D01*
X19603Y3804D01*
D02*
G37*
G54D11*
X4989Y1289D02*
D03*
X41328Y1328D02*
D03*
X41228Y78627D02*
D03*
G54D12*
X24127Y83925D02*
X24527D01*
X24327D01*
Y83325D01*
X24827D02*
X25026D01*
X25126Y83425D01*
Y83625D01*
X25026Y83725D01*
X24827D01*
X24727Y83625D01*
Y83425D01*
X24827Y83325D01*
X25326Y83125D02*
Y83725D01*
X25626D01*
X25726Y83625D01*
Y83425D01*
X25626Y83325D01*
X25326D01*
X26526D02*
Y83925D01*
X26826D01*
X26926Y83825D01*
Y83625D01*
X26826Y83525D01*
X26526D01*
X27226Y83725D02*
X27426D01*
X27526Y83625D01*
Y83325D01*
X27226D01*
X27126Y83425D01*
X27226Y83525D01*
X27526D01*
X27726Y83325D02*
X28026D01*
X28125Y83425D01*
X28026Y83525D01*
X27826D01*
X27726Y83625D01*
X27826Y83725D01*
X28125D01*
X28425Y83825D02*
Y83725D01*
X28325D01*
X28525D01*
X28425D01*
Y83425D01*
X28525Y83325D01*
X29125D02*
X28925D01*
X28825Y83425D01*
Y83625D01*
X28925Y83725D01*
X29125D01*
X29225Y83625D01*
Y83525D01*
X28825D01*
G54D42*
X40765Y3893D02*
D03*
Y14553D02*
D03*
Y25213D02*
D03*
Y35873D02*
D03*
Y46533D02*
D03*
Y57193D02*
D03*
Y67853D02*
D03*
X19745Y3893D02*
D03*
Y14553D02*
D03*
Y25213D02*
D03*
Y35873D02*
D03*
Y46533D02*
D03*
Y57193D02*
D03*
Y67853D02*
D03*
G54D43*
X41559Y5584D02*
D03*
Y4993D02*
D03*
X40275D02*
D03*
Y5584D02*
D03*
X41559Y16244D02*
D03*
Y15653D02*
D03*
X40275D02*
D03*
Y16244D02*
D03*
X41559Y26904D02*
D03*
Y26313D02*
D03*
X40275D02*
D03*
Y26904D02*
D03*
X41559Y37564D02*
D03*
Y36973D02*
D03*
X40275D02*
D03*
Y37564D02*
D03*
X41559Y48224D02*
D03*
Y47633D02*
D03*
X40275D02*
D03*
Y48224D02*
D03*
X41559Y58884D02*
D03*
Y58293D02*
D03*
X40275D02*
D03*
Y58884D02*
D03*
X41559Y69544D02*
D03*
Y68953D02*
D03*
X40275D02*
D03*
Y69544D02*
D03*
X20539Y5584D02*
D03*
Y4993D02*
D03*
X19255D02*
D03*
Y5584D02*
D03*
X20539Y16244D02*
D03*
Y15653D02*
D03*
X19255D02*
D03*
Y16244D02*
D03*
X20539Y26904D02*
D03*
Y26313D02*
D03*
X19255D02*
D03*
Y26904D02*
D03*
X20539Y37564D02*
D03*
Y36973D02*
D03*
X19255D02*
D03*
Y37564D02*
D03*
X20539Y48224D02*
D03*
Y47633D02*
D03*
X19255D02*
D03*
Y48224D02*
D03*
X20539Y58884D02*
D03*
Y58293D02*
D03*
X19255D02*
D03*
Y58884D02*
D03*
X20539Y69544D02*
D03*
Y68953D02*
D03*
X19255D02*
D03*
Y69544D02*
D03*
G54D44*
X41311Y4646D02*
D03*
X41114D02*
D03*
X40917D02*
D03*
X40720D02*
D03*
X40523D02*
D03*
Y5930D02*
D03*
X40720D02*
D03*
X40917D02*
D03*
X41114D02*
D03*
X41311D02*
D03*
Y15306D02*
D03*
X41114D02*
D03*
X40917D02*
D03*
X40720D02*
D03*
X40523D02*
D03*
Y16590D02*
D03*
X40720D02*
D03*
X40917D02*
D03*
X41114D02*
D03*
X41311D02*
D03*
Y25966D02*
D03*
X41114D02*
D03*
X40917D02*
D03*
X40720D02*
D03*
X40523D02*
D03*
Y27250D02*
D03*
X40720D02*
D03*
X40917D02*
D03*
X41114D02*
D03*
X41311D02*
D03*
Y36626D02*
D03*
X41114D02*
D03*
X40917D02*
D03*
X40720D02*
D03*
X40523D02*
D03*
Y37910D02*
D03*
X40720D02*
D03*
X40917D02*
D03*
X41114D02*
D03*
X41311D02*
D03*
Y47286D02*
D03*
X41114D02*
D03*
X40917D02*
D03*
X40720D02*
D03*
X40523D02*
D03*
Y48570D02*
D03*
X40720D02*
D03*
X40917D02*
D03*
X41114D02*
D03*
X41311D02*
D03*
Y57946D02*
D03*
X41114D02*
D03*
X40917D02*
D03*
X40720D02*
D03*
X40523D02*
D03*
Y59230D02*
D03*
X40720D02*
D03*
X40917D02*
D03*
X41114D02*
D03*
X41311D02*
D03*
Y68606D02*
D03*
X41114D02*
D03*
X40917D02*
D03*
X40720D02*
D03*
X40523D02*
D03*
Y69890D02*
D03*
X40720D02*
D03*
X40917D02*
D03*
X41114D02*
D03*
X41311D02*
D03*
X20291Y4646D02*
D03*
X20094D02*
D03*
X19897D02*
D03*
X19700D02*
D03*
X19503D02*
D03*
Y5930D02*
D03*
X19700D02*
D03*
X19897D02*
D03*
X20094D02*
D03*
X20291D02*
D03*
Y15306D02*
D03*
X20094D02*
D03*
X19897D02*
D03*
X19700D02*
D03*
X19503D02*
D03*
Y16590D02*
D03*
X19700D02*
D03*
X19897D02*
D03*
X20094D02*
D03*
X20291D02*
D03*
Y25966D02*
D03*
X20094D02*
D03*
X19897D02*
D03*
X19700D02*
D03*
X19503D02*
D03*
Y27250D02*
D03*
X19700D02*
D03*
X19897D02*
D03*
X20094D02*
D03*
X20291D02*
D03*
Y36626D02*
D03*
X20094D02*
D03*
X19897D02*
D03*
X19700D02*
D03*
X19503D02*
D03*
Y37910D02*
D03*
X19700D02*
D03*
X19897D02*
D03*
X20094D02*
D03*
X20291D02*
D03*
Y47286D02*
D03*
X20094D02*
D03*
X19897D02*
D03*
X19700D02*
D03*
X19503D02*
D03*
Y48570D02*
D03*
X19700D02*
D03*
X19897D02*
D03*
X20094D02*
D03*
X20291D02*
D03*
Y57946D02*
D03*
X20094D02*
D03*
X19897D02*
D03*
X19700D02*
D03*
X19503D02*
D03*
Y59230D02*
D03*
X19700D02*
D03*
X19897D02*
D03*
X20094D02*
D03*
X20291D02*
D03*
Y68606D02*
D03*
X20094D02*
D03*
X19897D02*
D03*
X19700D02*
D03*
X19503D02*
D03*
Y69890D02*
D03*
X19700D02*
D03*
X19897D02*
D03*
X20094D02*
D03*
X20291D02*
D03*
G54D45*
X41535Y7278D02*
D03*
Y7475D02*
D03*
Y7671D02*
D03*
Y7868D02*
D03*
X40495Y7278D02*
D03*
Y7475D02*
D03*
Y7671D02*
D03*
Y7868D02*
D03*
X41535Y17938D02*
D03*
Y18135D02*
D03*
Y18331D02*
D03*
Y18528D02*
D03*
X40495Y17938D02*
D03*
Y18135D02*
D03*
Y18331D02*
D03*
Y18528D02*
D03*
X41535Y28598D02*
D03*
Y28795D02*
D03*
Y28991D02*
D03*
Y29188D02*
D03*
X40495Y28598D02*
D03*
Y28795D02*
D03*
Y28991D02*
D03*
Y29188D02*
D03*
X41535Y39258D02*
D03*
Y39455D02*
D03*
Y39651D02*
D03*
Y39848D02*
D03*
X40495Y39258D02*
D03*
Y39455D02*
D03*
Y39651D02*
D03*
Y39848D02*
D03*
X41535Y49918D02*
D03*
Y50115D02*
D03*
Y50311D02*
D03*
Y50508D02*
D03*
X40495Y49918D02*
D03*
Y50115D02*
D03*
Y50311D02*
D03*
Y50508D02*
D03*
X41535Y60578D02*
D03*
Y60775D02*
D03*
Y60971D02*
D03*
Y61168D02*
D03*
X40495Y60578D02*
D03*
Y60775D02*
D03*
Y60971D02*
D03*
Y61168D02*
D03*
X41535Y71238D02*
D03*
Y71435D02*
D03*
Y71631D02*
D03*
Y71828D02*
D03*
X40495Y71238D02*
D03*
Y71435D02*
D03*
Y71631D02*
D03*
Y71828D02*
D03*
X20515Y7278D02*
D03*
Y7475D02*
D03*
Y7671D02*
D03*
Y7868D02*
D03*
X19475Y7278D02*
D03*
Y7475D02*
D03*
Y7671D02*
D03*
Y7868D02*
D03*
X20515Y17938D02*
D03*
Y18135D02*
D03*
Y18331D02*
D03*
Y18528D02*
D03*
X19475Y17938D02*
D03*
Y18135D02*
D03*
Y18331D02*
D03*
Y18528D02*
D03*
X20515Y28598D02*
D03*
Y28795D02*
D03*
Y28991D02*
D03*
Y29188D02*
D03*
X19475Y28598D02*
D03*
Y28795D02*
D03*
Y28991D02*
D03*
Y29188D02*
D03*
X20515Y39258D02*
D03*
Y39455D02*
D03*
Y39651D02*
D03*
Y39848D02*
D03*
X19475Y39258D02*
D03*
Y39455D02*
D03*
Y39651D02*
D03*
Y39848D02*
D03*
X20515Y49918D02*
D03*
Y50115D02*
D03*
Y50311D02*
D03*
Y50508D02*
D03*
X19475Y49918D02*
D03*
Y50115D02*
D03*
Y50311D02*
D03*
Y50508D02*
D03*
X20515Y60578D02*
D03*
Y60775D02*
D03*
Y60971D02*
D03*
Y61168D02*
D03*
X19475Y60578D02*
D03*
Y60775D02*
D03*
Y60971D02*
D03*
Y61168D02*
D03*
X20515Y71238D02*
D03*
Y71435D02*
D03*
Y71631D02*
D03*
Y71828D02*
D03*
X19475Y71238D02*
D03*
Y71435D02*
D03*
Y71631D02*
D03*
Y71828D02*
D03*
G54D46*
X41015Y7573D02*
D03*
Y18233D02*
D03*
Y28893D02*
D03*
Y39553D02*
D03*
Y50213D02*
D03*
Y60873D02*
D03*
Y71533D02*
D03*
X19995Y7573D02*
D03*
Y18233D02*
D03*
Y28893D02*
D03*
Y39553D02*
D03*
Y50213D02*
D03*
Y60873D02*
D03*
Y71533D02*
D03*
G54D47*
X31745Y11941D02*
D03*
Y11565D02*
D03*
X41285Y3704D02*
D03*
Y4081D02*
D03*
X41695Y3704D02*
D03*
Y4081D02*
D03*
X41995Y5491D02*
D03*
Y5114D02*
D03*
X40245Y3704D02*
D03*
Y4081D02*
D03*
X40615Y9783D02*
D03*
Y9404D02*
D03*
X40255Y8993D02*
D03*
Y8614D02*
D03*
X31925Y4613D02*
D03*
Y4992D02*
D03*
X28455Y7613D02*
D03*
Y7234D02*
D03*
Y9003D02*
D03*
Y8624D02*
D03*
X31745Y22601D02*
D03*
Y22225D02*
D03*
X41285Y14365D02*
D03*
Y14741D02*
D03*
X41695Y14365D02*
D03*
Y14741D02*
D03*
X41995Y16151D02*
D03*
Y15775D02*
D03*
X40245Y14365D02*
D03*
Y14741D02*
D03*
X40615Y20443D02*
D03*
Y20064D02*
D03*
X40255Y19653D02*
D03*
Y19274D02*
D03*
X31925Y15273D02*
D03*
Y15652D02*
D03*
X28455Y18273D02*
D03*
Y17894D02*
D03*
Y19663D02*
D03*
Y19284D02*
D03*
X31745Y33261D02*
D03*
Y32885D02*
D03*
X41285Y25024D02*
D03*
Y25401D02*
D03*
X41695Y25024D02*
D03*
Y25401D02*
D03*
X41995Y26811D02*
D03*
Y26435D02*
D03*
X40245Y25024D02*
D03*
Y25401D02*
D03*
X40615Y31103D02*
D03*
Y30724D02*
D03*
X40255Y30313D02*
D03*
Y29934D02*
D03*
X31925Y25933D02*
D03*
Y26312D02*
D03*
X28455Y28933D02*
D03*
Y28554D02*
D03*
Y30323D02*
D03*
Y29944D02*
D03*
X31745Y43921D02*
D03*
Y43545D02*
D03*
X41285Y35684D02*
D03*
Y36061D02*
D03*
X41695Y35684D02*
D03*
Y36061D02*
D03*
X41995Y37471D02*
D03*
Y37095D02*
D03*
X40245Y35684D02*
D03*
Y36061D02*
D03*
X40615Y41763D02*
D03*
Y41384D02*
D03*
X40255Y40973D02*
D03*
Y40594D02*
D03*
X31925Y36593D02*
D03*
Y36972D02*
D03*
X28455Y39593D02*
D03*
Y39214D02*
D03*
Y40983D02*
D03*
Y40604D02*
D03*
X31745Y54581D02*
D03*
Y54205D02*
D03*
X41285Y46344D02*
D03*
Y46722D02*
D03*
X41695Y46344D02*
D03*
Y46722D02*
D03*
X41995Y48131D02*
D03*
Y47755D02*
D03*
X40245Y46344D02*
D03*
Y46722D02*
D03*
X40615Y52423D02*
D03*
Y52044D02*
D03*
X40255Y51633D02*
D03*
Y51254D02*
D03*
X31925Y47253D02*
D03*
Y47632D02*
D03*
X28455Y50253D02*
D03*
Y49874D02*
D03*
Y51643D02*
D03*
Y51264D02*
D03*
X31745Y65241D02*
D03*
Y64865D02*
D03*
X41285Y57004D02*
D03*
Y57382D02*
D03*
X41695Y57004D02*
D03*
Y57382D02*
D03*
X41995Y58791D02*
D03*
Y58415D02*
D03*
X40245Y57004D02*
D03*
Y57382D02*
D03*
X40615Y63083D02*
D03*
Y62704D02*
D03*
X40255Y62293D02*
D03*
Y61914D02*
D03*
X31925Y57913D02*
D03*
Y58292D02*
D03*
X28455Y60913D02*
D03*
Y60534D02*
D03*
Y62303D02*
D03*
Y61924D02*
D03*
X31745Y75901D02*
D03*
Y75525D02*
D03*
X41285Y67664D02*
D03*
Y68042D02*
D03*
X41695Y67664D02*
D03*
Y68042D02*
D03*
X41995Y69451D02*
D03*
Y69075D02*
D03*
X40245Y67664D02*
D03*
Y68042D02*
D03*
X40615Y73743D02*
D03*
Y73364D02*
D03*
X40255Y72953D02*
D03*
Y72574D02*
D03*
X31925Y68573D02*
D03*
Y68952D02*
D03*
X28455Y71573D02*
D03*
Y71194D02*
D03*
Y72963D02*
D03*
Y72584D02*
D03*
X10725Y11941D02*
D03*
Y11565D02*
D03*
X20265Y3704D02*
D03*
Y4081D02*
D03*
X20675Y3704D02*
D03*
Y4081D02*
D03*
X20975Y5491D02*
D03*
Y5114D02*
D03*
X19225Y3704D02*
D03*
Y4081D02*
D03*
X19595Y9783D02*
D03*
Y9404D02*
D03*
X19235Y8993D02*
D03*
Y8614D02*
D03*
X10905Y4613D02*
D03*
Y4992D02*
D03*
X7435Y7613D02*
D03*
Y7234D02*
D03*
Y9003D02*
D03*
Y8624D02*
D03*
X10725Y22601D02*
D03*
Y22225D02*
D03*
X20265Y14365D02*
D03*
Y14741D02*
D03*
X20675Y14365D02*
D03*
Y14741D02*
D03*
X20975Y16151D02*
D03*
Y15775D02*
D03*
X19225Y14365D02*
D03*
Y14741D02*
D03*
X19595Y20443D02*
D03*
Y20064D02*
D03*
X19235Y19653D02*
D03*
Y19274D02*
D03*
X10905Y15273D02*
D03*
Y15652D02*
D03*
X7435Y18273D02*
D03*
Y17894D02*
D03*
Y19663D02*
D03*
Y19284D02*
D03*
X10725Y33261D02*
D03*
Y32885D02*
D03*
X20265Y25024D02*
D03*
Y25401D02*
D03*
X20675Y25024D02*
D03*
Y25401D02*
D03*
X20975Y26811D02*
D03*
Y26435D02*
D03*
X19225Y25024D02*
D03*
Y25401D02*
D03*
X19595Y31103D02*
D03*
Y30724D02*
D03*
X19235Y30313D02*
D03*
Y29934D02*
D03*
X10905Y25933D02*
D03*
Y26312D02*
D03*
X7435Y28933D02*
D03*
Y28554D02*
D03*
Y30323D02*
D03*
Y29944D02*
D03*
X10725Y43921D02*
D03*
Y43545D02*
D03*
X20265Y35684D02*
D03*
Y36061D02*
D03*
X20675Y35684D02*
D03*
Y36061D02*
D03*
X20975Y37471D02*
D03*
Y37095D02*
D03*
X19225Y35684D02*
D03*
Y36061D02*
D03*
X19595Y41763D02*
D03*
Y41384D02*
D03*
X19235Y40973D02*
D03*
Y40594D02*
D03*
X10905Y36593D02*
D03*
Y36972D02*
D03*
X7435Y39593D02*
D03*
Y39214D02*
D03*
Y40983D02*
D03*
Y40604D02*
D03*
X10725Y54581D02*
D03*
Y54205D02*
D03*
X20265Y46344D02*
D03*
Y46722D02*
D03*
X20675Y46344D02*
D03*
Y46722D02*
D03*
X20975Y48131D02*
D03*
Y47755D02*
D03*
X19225Y46344D02*
D03*
Y46722D02*
D03*
X19595Y52423D02*
D03*
Y52044D02*
D03*
X19235Y51633D02*
D03*
Y51254D02*
D03*
X10905Y47253D02*
D03*
Y47632D02*
D03*
X7435Y50253D02*
D03*
Y49874D02*
D03*
Y51643D02*
D03*
Y51264D02*
D03*
X10725Y65241D02*
D03*
Y64865D02*
D03*
X20265Y57004D02*
D03*
Y57382D02*
D03*
X20675Y57004D02*
D03*
Y57382D02*
D03*
X20975Y58791D02*
D03*
Y58415D02*
D03*
X19225Y57004D02*
D03*
Y57382D02*
D03*
X19595Y63083D02*
D03*
Y62704D02*
D03*
X19235Y62293D02*
D03*
Y61914D02*
D03*
X10905Y57913D02*
D03*
Y58292D02*
D03*
X7435Y60913D02*
D03*
Y60534D02*
D03*
Y62303D02*
D03*
Y61924D02*
D03*
X10725Y75901D02*
D03*
Y75525D02*
D03*
X20265Y67664D02*
D03*
Y68042D02*
D03*
X20675Y67664D02*
D03*
Y68042D02*
D03*
X20975Y69451D02*
D03*
Y69075D02*
D03*
X19225Y67664D02*
D03*
Y68042D02*
D03*
X19595Y73743D02*
D03*
Y73364D02*
D03*
X19235Y72953D02*
D03*
Y72574D02*
D03*
X10905Y68573D02*
D03*
Y68952D02*
D03*
X7435Y71573D02*
D03*
Y71194D02*
D03*
Y72963D02*
D03*
Y72584D02*
D03*
G54D48*
X32238Y12019D02*
D03*
X32632D02*
D03*
X32633Y11487D02*
D03*
X32435D02*
D03*
X32237D02*
D03*
X32238Y22679D02*
D03*
X32632D02*
D03*
X32633Y22147D02*
D03*
X32435D02*
D03*
X32237D02*
D03*
X32238Y33339D02*
D03*
X32632D02*
D03*
X32633Y32807D02*
D03*
X32435D02*
D03*
X32237D02*
D03*
X32238Y43999D02*
D03*
X32632D02*
D03*
X32633Y43467D02*
D03*
X32435D02*
D03*
X32237D02*
D03*
X32238Y54659D02*
D03*
X32632D02*
D03*
X32633Y54127D02*
D03*
X32435D02*
D03*
X32237D02*
D03*
X32238Y65319D02*
D03*
X32632D02*
D03*
X32633Y64787D02*
D03*
X32435D02*
D03*
X32237D02*
D03*
X32238Y75979D02*
D03*
X32632D02*
D03*
X32633Y75447D02*
D03*
X32435D02*
D03*
X32237D02*
D03*
X11218Y12019D02*
D03*
X11612D02*
D03*
X11613Y11487D02*
D03*
X11415D02*
D03*
X11217D02*
D03*
X11218Y22679D02*
D03*
X11612D02*
D03*
X11613Y22147D02*
D03*
X11415D02*
D03*
X11217D02*
D03*
X11218Y33339D02*
D03*
X11612D02*
D03*
X11613Y32807D02*
D03*
X11415D02*
D03*
X11217D02*
D03*
X11218Y43999D02*
D03*
X11612D02*
D03*
X11613Y43467D02*
D03*
X11415D02*
D03*
X11217D02*
D03*
X11218Y54659D02*
D03*
X11612D02*
D03*
X11613Y54127D02*
D03*
X11415D02*
D03*
X11217D02*
D03*
X11218Y65319D02*
D03*
X11612D02*
D03*
X11613Y64787D02*
D03*
X11415D02*
D03*
X11217D02*
D03*
X11218Y75979D02*
D03*
X11612D02*
D03*
X11613Y75447D02*
D03*
X11415D02*
D03*
X11217D02*
D03*
G54D49*
X42324Y9273D02*
D03*
X41945D02*
D03*
X32305Y10873D02*
D03*
X31926D02*
D03*
X32076Y12433D02*
D03*
X32455D02*
D03*
X40486Y6893D02*
D03*
X40863D02*
D03*
X41086Y8603D02*
D03*
X41463D02*
D03*
X42324Y19933D02*
D03*
X41945D02*
D03*
X32305Y21533D02*
D03*
X31926D02*
D03*
X32076Y23093D02*
D03*
X32455D02*
D03*
X40486Y17553D02*
D03*
X40863D02*
D03*
X41086Y19263D02*
D03*
X41463D02*
D03*
X42324Y30593D02*
D03*
X41945D02*
D03*
X32305Y32193D02*
D03*
X31926D02*
D03*
X32076Y33753D02*
D03*
X32455D02*
D03*
X40486Y28213D02*
D03*
X40863D02*
D03*
X41086Y29923D02*
D03*
X41463D02*
D03*
X42324Y41253D02*
D03*
X41945D02*
D03*
X32305Y42853D02*
D03*
X31926D02*
D03*
X32076Y44413D02*
D03*
X32455D02*
D03*
X40486Y38873D02*
D03*
X40863D02*
D03*
X41086Y40583D02*
D03*
X41463D02*
D03*
X42324Y51913D02*
D03*
X41945D02*
D03*
X32305Y53513D02*
D03*
X31926D02*
D03*
X32076Y55073D02*
D03*
X32455D02*
D03*
X40486Y49533D02*
D03*
X40863D02*
D03*
X41086Y51243D02*
D03*
X41463D02*
D03*
X42324Y62573D02*
D03*
X41945D02*
D03*
X32305Y64173D02*
D03*
X31926D02*
D03*
X32076Y65733D02*
D03*
X32455D02*
D03*
X40486Y60193D02*
D03*
X40863D02*
D03*
X41086Y61903D02*
D03*
X41463D02*
D03*
X42324Y73233D02*
D03*
X41945D02*
D03*
X32305Y74833D02*
D03*
X31926D02*
D03*
X32076Y76393D02*
D03*
X32455D02*
D03*
X40486Y70853D02*
D03*
X40863D02*
D03*
X41086Y72563D02*
D03*
X41463D02*
D03*
X21304Y9273D02*
D03*
X20925D02*
D03*
X11285Y10873D02*
D03*
X10906D02*
D03*
X11056Y12433D02*
D03*
X11435D02*
D03*
X19466Y6893D02*
D03*
X19843D02*
D03*
X20066Y8603D02*
D03*
X20443D02*
D03*
X21304Y19933D02*
D03*
X20925D02*
D03*
X11285Y21533D02*
D03*
X10906D02*
D03*
X11056Y23093D02*
D03*
X11435D02*
D03*
X19466Y17553D02*
D03*
X19843D02*
D03*
X20066Y19263D02*
D03*
X20443D02*
D03*
X21304Y30593D02*
D03*
X20925D02*
D03*
X11285Y32193D02*
D03*
X10906D02*
D03*
X11056Y33753D02*
D03*
X11435D02*
D03*
X19466Y28213D02*
D03*
X19843D02*
D03*
X20066Y29923D02*
D03*
X20443D02*
D03*
X21304Y41253D02*
D03*
X20925D02*
D03*
X11285Y42853D02*
D03*
X10906D02*
D03*
X11056Y44413D02*
D03*
X11435D02*
D03*
X19466Y38873D02*
D03*
X19843D02*
D03*
X20066Y40583D02*
D03*
X20443D02*
D03*
X21304Y51913D02*
D03*
X20925D02*
D03*
X11285Y53513D02*
D03*
X10906D02*
D03*
X11056Y55073D02*
D03*
X11435D02*
D03*
X19466Y49533D02*
D03*
X19843D02*
D03*
X20066Y51243D02*
D03*
X20443D02*
D03*
X21304Y62573D02*
D03*
X20925D02*
D03*
X11285Y64173D02*
D03*
X10906D02*
D03*
X11056Y65733D02*
D03*
X11435D02*
D03*
X19466Y60193D02*
D03*
X19843D02*
D03*
X20066Y61903D02*
D03*
X20443D02*
D03*
X21304Y73233D02*
D03*
X20925D02*
D03*
X11285Y74833D02*
D03*
X10906D02*
D03*
X11056Y76393D02*
D03*
X11435D02*
D03*
X19466Y70853D02*
D03*
X19843D02*
D03*
X20066Y72563D02*
D03*
X20443D02*
D03*
G54D50*
X41541Y9015D02*
D03*
Y9213D02*
D03*
Y9411D02*
D03*
X41009Y9410D02*
D03*
Y9016D02*
D03*
X41541Y19675D02*
D03*
Y19873D02*
D03*
Y20071D02*
D03*
X41009Y20070D02*
D03*
Y19676D02*
D03*
X41541Y30335D02*
D03*
Y30533D02*
D03*
Y30731D02*
D03*
X41009Y30730D02*
D03*
Y30336D02*
D03*
X41541Y40995D02*
D03*
Y41193D02*
D03*
Y41391D02*
D03*
X41009Y41390D02*
D03*
Y40996D02*
D03*
X41541Y51655D02*
D03*
Y51853D02*
D03*
Y52051D02*
D03*
X41009Y52050D02*
D03*
Y51656D02*
D03*
X41541Y62315D02*
D03*
Y62513D02*
D03*
Y62711D02*
D03*
X41009Y62710D02*
D03*
Y62316D02*
D03*
X41541Y72975D02*
D03*
Y73173D02*
D03*
Y73371D02*
D03*
X41009Y73370D02*
D03*
Y72976D02*
D03*
X20521Y9015D02*
D03*
Y9213D02*
D03*
Y9411D02*
D03*
X19989Y9410D02*
D03*
Y9016D02*
D03*
X20521Y19675D02*
D03*
Y19873D02*
D03*
Y20071D02*
D03*
X19989Y20070D02*
D03*
Y19676D02*
D03*
X20521Y30335D02*
D03*
Y30533D02*
D03*
Y30731D02*
D03*
X19989Y30730D02*
D03*
Y30336D02*
D03*
X20521Y40995D02*
D03*
Y41193D02*
D03*
Y41391D02*
D03*
X19989Y41390D02*
D03*
Y40996D02*
D03*
X20521Y51655D02*
D03*
Y51853D02*
D03*
Y52051D02*
D03*
X19989Y52050D02*
D03*
Y51656D02*
D03*
X20521Y62315D02*
D03*
Y62513D02*
D03*
Y62711D02*
D03*
X19989Y62710D02*
D03*
Y62316D02*
D03*
X20521Y72975D02*
D03*
Y73173D02*
D03*
Y73371D02*
D03*
X19989Y73370D02*
D03*
Y72976D02*
D03*
M02*
