G04 Layer_Color=8388736*
%FSLAX24Y24*%
%MOIN*%
G70*
G01*
G75*
%ADD12C,0.0100*%
%ADD14P,0.0290X4X180.0*%
%ADD51R,0.1040X0.1680*%
G04:AMPARAMS|DCode=52|XSize=118.7mil|YSize=118.7mil|CornerRadius=59.4mil|HoleSize=0mil|Usage=FLASHONLY|Rotation=90.000|XOffset=0mil|YOffset=0mil|HoleType=Round|Shape=RoundedRectangle|*
%AMROUNDEDRECTD52*
21,1,0.1187,0.0000,0,0,90.0*
21,1,0.0000,0.1187,0,0,90.0*
1,1,0.1187,0.0000,0.0000*
1,1,0.1187,0.0000,0.0000*
1,1,0.1187,0.0000,0.0000*
1,1,0.1187,0.0000,0.0000*
%
%ADD52ROUNDEDRECTD52*%
%ADD53R,0.0847X0.0847*%
%ADD54O,0.0355X0.0150*%
%ADD55O,0.0150X0.0355*%
%ADD56R,0.0257X0.0138*%
%ADD57R,0.0119X0.0670*%
G04:AMPARAMS|DCode=58|XSize=26mil|YSize=28mil|CornerRadius=6.4mil|HoleSize=0mil|Usage=FLASHONLY|Rotation=90.000|XOffset=0mil|YOffset=0mil|HoleType=Round|Shape=RoundedRectangle|*
%AMROUNDEDRECTD58*
21,1,0.0260,0.0152,0,0,90.0*
21,1,0.0132,0.0280,0,0,90.0*
1,1,0.0128,0.0076,0.0066*
1,1,0.0128,0.0076,-0.0066*
1,1,0.0128,-0.0076,-0.0066*
1,1,0.0128,-0.0076,0.0066*
%
%ADD58ROUNDEDRECTD58*%
%ADD59R,0.0158X0.0217*%
G04:AMPARAMS|DCode=60|XSize=26mil|YSize=28mil|CornerRadius=6.4mil|HoleSize=0mil|Usage=FLASHONLY|Rotation=180.000|XOffset=0mil|YOffset=0mil|HoleType=Round|Shape=RoundedRectangle|*
%AMROUNDEDRECTD60*
21,1,0.0260,0.0152,0,0,180.0*
21,1,0.0132,0.0280,0,0,180.0*
1,1,0.0128,-0.0066,0.0076*
1,1,0.0128,0.0066,0.0076*
1,1,0.0128,0.0066,-0.0076*
1,1,0.0128,-0.0066,-0.0076*
%
%ADD60ROUNDEDRECTD60*%
G04:AMPARAMS|DCode=61|XSize=80mil|YSize=80mil|CornerRadius=40mil|HoleSize=0mil|Usage=FLASHONLY|Rotation=360.000|XOffset=0mil|YOffset=0mil|HoleType=Round|Shape=RoundedRectangle|*
%AMROUNDEDRECTD61*
21,1,0.0800,0.0000,0,0,360.0*
21,1,0.0000,0.0800,0,0,360.0*
1,1,0.0800,0.0000,0.0000*
1,1,0.0800,0.0000,0.0000*
1,1,0.0800,0.0000,0.0000*
1,1,0.0800,0.0000,0.0000*
%
%ADD61ROUNDEDRECTD61*%
%ADD62R,0.0217X0.0158*%
%ADD63R,0.0631X0.0631*%
%ADD64C,0.0631*%
G36*
X41009Y67932D02*
X40907D01*
X40848Y67991D01*
Y68034D01*
X41009D01*
Y67932D01*
D02*
G37*
G36*
X40682Y67991D02*
X40623Y67932D01*
X40521D01*
Y68034D01*
X40682D01*
Y67991D01*
D02*
G37*
G36*
X19989Y67932D02*
X19887D01*
X19828Y67991D01*
Y68034D01*
X19989D01*
Y67932D01*
D02*
G37*
G36*
X19662Y67991D02*
X19603Y67932D01*
X19501D01*
Y68034D01*
X19662D01*
Y67991D01*
D02*
G37*
G36*
X41009Y67672D02*
X40848D01*
Y67715D01*
X40907Y67774D01*
X41009D01*
Y67672D01*
D02*
G37*
G36*
X40682Y67715D02*
Y67672D01*
X40521D01*
Y67774D01*
X40623D01*
X40682Y67715D01*
D02*
G37*
G36*
X19989Y67672D02*
X19828D01*
Y67715D01*
X19887Y67774D01*
X19989D01*
Y67672D01*
D02*
G37*
G36*
X19662Y67715D02*
Y67672D01*
X19501D01*
Y67774D01*
X19603D01*
X19662Y67715D01*
D02*
G37*
G36*
X41009Y57272D02*
X40907D01*
X40848Y57331D01*
Y57374D01*
X41009D01*
Y57272D01*
D02*
G37*
G36*
X40682Y57331D02*
X40623Y57272D01*
X40521D01*
Y57374D01*
X40682D01*
Y57331D01*
D02*
G37*
G36*
X19989Y57272D02*
X19887D01*
X19828Y57331D01*
Y57374D01*
X19989D01*
Y57272D01*
D02*
G37*
G36*
X19662Y57331D02*
X19603Y57272D01*
X19501D01*
Y57374D01*
X19662D01*
Y57331D01*
D02*
G37*
G36*
X41009Y57012D02*
X40848D01*
Y57055D01*
X40907Y57114D01*
X41009D01*
Y57012D01*
D02*
G37*
G36*
X40682Y57055D02*
Y57012D01*
X40521D01*
Y57114D01*
X40623D01*
X40682Y57055D01*
D02*
G37*
G36*
X19989Y57012D02*
X19828D01*
Y57055D01*
X19887Y57114D01*
X19989D01*
Y57012D01*
D02*
G37*
G36*
X19662Y57055D02*
Y57012D01*
X19501D01*
Y57114D01*
X19603D01*
X19662Y57055D01*
D02*
G37*
G36*
X41009Y46612D02*
X40907D01*
X40848Y46671D01*
Y46714D01*
X41009D01*
Y46612D01*
D02*
G37*
G36*
X40682Y46671D02*
X40623Y46612D01*
X40521D01*
Y46714D01*
X40682D01*
Y46671D01*
D02*
G37*
G36*
X19989Y46612D02*
X19887D01*
X19828Y46671D01*
Y46714D01*
X19989D01*
Y46612D01*
D02*
G37*
G36*
X19662Y46671D02*
X19603Y46612D01*
X19501D01*
Y46714D01*
X19662D01*
Y46671D01*
D02*
G37*
G36*
X41009Y46352D02*
X40848D01*
Y46395D01*
X40907Y46454D01*
X41009D01*
Y46352D01*
D02*
G37*
G36*
X40682Y46395D02*
Y46352D01*
X40521D01*
Y46454D01*
X40623D01*
X40682Y46395D01*
D02*
G37*
G36*
X19989Y46352D02*
X19828D01*
Y46395D01*
X19887Y46454D01*
X19989D01*
Y46352D01*
D02*
G37*
G36*
X19662Y46395D02*
Y46352D01*
X19501D01*
Y46454D01*
X19603D01*
X19662Y46395D01*
D02*
G37*
G36*
X41009Y35952D02*
X40907D01*
X40848Y36011D01*
Y36054D01*
X41009D01*
Y35952D01*
D02*
G37*
G36*
X40682Y36011D02*
X40623Y35952D01*
X40521D01*
Y36054D01*
X40682D01*
Y36011D01*
D02*
G37*
G36*
X19989Y35952D02*
X19887D01*
X19828Y36011D01*
Y36054D01*
X19989D01*
Y35952D01*
D02*
G37*
G36*
X19662Y36011D02*
X19603Y35952D01*
X19501D01*
Y36054D01*
X19662D01*
Y36011D01*
D02*
G37*
G36*
X41009Y35692D02*
X40848D01*
Y35735D01*
X40907Y35794D01*
X41009D01*
Y35692D01*
D02*
G37*
G36*
X40682Y35735D02*
Y35692D01*
X40521D01*
Y35794D01*
X40623D01*
X40682Y35735D01*
D02*
G37*
G36*
X19989Y35692D02*
X19828D01*
Y35735D01*
X19887Y35794D01*
X19989D01*
Y35692D01*
D02*
G37*
G36*
X19662Y35735D02*
Y35692D01*
X19501D01*
Y35794D01*
X19603D01*
X19662Y35735D01*
D02*
G37*
G36*
X41009Y25292D02*
X40907D01*
X40848Y25351D01*
Y25394D01*
X41009D01*
Y25292D01*
D02*
G37*
G36*
X40682Y25351D02*
X40623Y25292D01*
X40521D01*
Y25394D01*
X40682D01*
Y25351D01*
D02*
G37*
G36*
X19989Y25292D02*
X19887D01*
X19828Y25351D01*
Y25394D01*
X19989D01*
Y25292D01*
D02*
G37*
G36*
X19662Y25351D02*
X19603Y25292D01*
X19501D01*
Y25394D01*
X19662D01*
Y25351D01*
D02*
G37*
G36*
X41009Y25032D02*
X40848D01*
Y25075D01*
X40907Y25134D01*
X41009D01*
Y25032D01*
D02*
G37*
G36*
X40682Y25075D02*
Y25032D01*
X40521D01*
Y25134D01*
X40623D01*
X40682Y25075D01*
D02*
G37*
G36*
X19989Y25032D02*
X19828D01*
Y25075D01*
X19887Y25134D01*
X19989D01*
Y25032D01*
D02*
G37*
G36*
X19662Y25075D02*
Y25032D01*
X19501D01*
Y25134D01*
X19603D01*
X19662Y25075D01*
D02*
G37*
G36*
X41009Y14632D02*
X40907D01*
X40848Y14691D01*
Y14734D01*
X41009D01*
Y14632D01*
D02*
G37*
G36*
X40682Y14691D02*
X40623Y14632D01*
X40521D01*
Y14734D01*
X40682D01*
Y14691D01*
D02*
G37*
G36*
X19989Y14632D02*
X19887D01*
X19828Y14691D01*
Y14734D01*
X19989D01*
Y14632D01*
D02*
G37*
G36*
X19662Y14691D02*
X19603Y14632D01*
X19501D01*
Y14734D01*
X19662D01*
Y14691D01*
D02*
G37*
G36*
X41009Y14372D02*
X40848D01*
Y14415D01*
X40907Y14474D01*
X41009D01*
Y14372D01*
D02*
G37*
G36*
X40682Y14415D02*
Y14372D01*
X40521D01*
Y14474D01*
X40623D01*
X40682Y14415D01*
D02*
G37*
G36*
X19989Y14372D02*
X19828D01*
Y14415D01*
X19887Y14474D01*
X19989D01*
Y14372D01*
D02*
G37*
G36*
X19662Y14415D02*
Y14372D01*
X19501D01*
Y14474D01*
X19603D01*
X19662Y14415D01*
D02*
G37*
G36*
X41009Y3972D02*
X40907D01*
X40848Y4031D01*
Y4074D01*
X41009D01*
Y3972D01*
D02*
G37*
G36*
X40682Y4031D02*
X40623Y3972D01*
X40521D01*
Y4074D01*
X40682D01*
Y4031D01*
D02*
G37*
G36*
X19989Y3972D02*
X19887D01*
X19828Y4031D01*
Y4074D01*
X19989D01*
Y3972D01*
D02*
G37*
G36*
X19662Y4031D02*
X19603Y3972D01*
X19501D01*
Y4074D01*
X19662D01*
Y4031D01*
D02*
G37*
G36*
X41009Y3712D02*
X40848D01*
Y3755D01*
X40907Y3814D01*
X41009D01*
Y3712D01*
D02*
G37*
G36*
X40682Y3755D02*
Y3712D01*
X40521D01*
Y3814D01*
X40623D01*
X40682Y3755D01*
D02*
G37*
G36*
X19989Y3712D02*
X19828D01*
Y3755D01*
X19887Y3814D01*
X19989D01*
Y3712D01*
D02*
G37*
G36*
X19662Y3755D02*
Y3712D01*
X19501D01*
Y3814D01*
X19603D01*
X19662Y3755D01*
D02*
G37*
G54D12*
X23477Y87775D02*
X23077D01*
Y87175D01*
X23477D01*
X23077Y87475D02*
X23277D01*
X23677Y87175D02*
X23877D01*
X23777D01*
Y87575D01*
X23677D01*
X24176Y87175D02*
Y87575D01*
X24476D01*
X24576Y87475D01*
Y87175D01*
X24776D02*
X25076D01*
X25176Y87275D01*
X25076Y87375D01*
X24876D01*
X24776Y87475D01*
X24876Y87575D01*
X25176D01*
X25376D02*
Y87275D01*
X25476Y87175D01*
X25776D01*
Y87075D01*
X25676Y86975D01*
X25576D01*
X25776Y87175D02*
Y87575D01*
X26576Y87675D02*
X26676Y87775D01*
X26876D01*
X26976Y87675D01*
Y87275D01*
X26876Y87175D01*
X26676D01*
X26576Y87275D01*
Y87675D01*
X27175Y87175D02*
Y87275D01*
X27275D01*
Y87175D01*
X27175D01*
X28075Y87775D02*
X27675D01*
Y87475D01*
X27875Y87575D01*
X27975D01*
X28075Y87475D01*
Y87275D01*
X27975Y87175D01*
X27775D01*
X27675Y87275D01*
X28375Y87575D02*
X28575D01*
X28675Y87475D01*
Y87175D01*
X28375D01*
X28275Y87275D01*
X28375Y87375D01*
X28675D01*
X23077Y86525D02*
X23477D01*
X23277D01*
Y85925D01*
X23777D02*
X23976D01*
X24076Y86025D01*
Y86225D01*
X23976Y86325D01*
X23777D01*
X23677Y86225D01*
Y86025D01*
X23777Y85925D01*
X24276Y85725D02*
Y86325D01*
X24576D01*
X24676Y86225D01*
Y86025D01*
X24576Y85925D01*
X24276D01*
X25876Y86425D02*
X25776Y86525D01*
X25576D01*
X25476Y86425D01*
Y86325D01*
X25576Y86225D01*
X25776D01*
X25876Y86125D01*
Y86025D01*
X25776Y85925D01*
X25576D01*
X25476Y86025D01*
X26176Y85925D02*
X26376D01*
X26476Y86025D01*
Y86225D01*
X26376Y86325D01*
X26176D01*
X26076Y86225D01*
Y86025D01*
X26176Y85925D01*
X26676D02*
X26876D01*
X26776D01*
Y86525D01*
X26676D01*
X27575D02*
Y85925D01*
X27275D01*
X27175Y86025D01*
Y86225D01*
X27275Y86325D01*
X27575D01*
X28075Y85925D02*
X27875D01*
X27775Y86025D01*
Y86225D01*
X27875Y86325D01*
X28075D01*
X28175Y86225D01*
Y86125D01*
X27775D01*
X28375Y86325D02*
Y85925D01*
Y86125D01*
X28475Y86225D01*
X28575Y86325D01*
X28675D01*
X28975Y85925D02*
Y86325D01*
X29075D01*
X29175Y86225D01*
Y85925D01*
Y86225D01*
X29275Y86325D01*
X29375Y86225D01*
Y85925D01*
X29675Y86325D02*
X29875D01*
X29975Y86225D01*
Y85925D01*
X29675D01*
X29575Y86025D01*
X29675Y86125D01*
X29975D01*
X30174Y85925D02*
X30474D01*
X30574Y86025D01*
X30474Y86125D01*
X30274D01*
X30174Y86225D01*
X30274Y86325D01*
X30574D01*
X30774Y85925D02*
Y86525D01*
Y86125D02*
X31074Y86325D01*
X30774Y86125D02*
X31074Y85925D01*
G54D14*
X40765Y3893D02*
D03*
Y14553D02*
D03*
Y25213D02*
D03*
Y35873D02*
D03*
Y46533D02*
D03*
Y57193D02*
D03*
Y67853D02*
D03*
X19745Y3893D02*
D03*
Y14553D02*
D03*
Y25213D02*
D03*
Y35873D02*
D03*
Y46533D02*
D03*
Y57193D02*
D03*
Y67853D02*
D03*
G54D51*
X40927Y5288D02*
D03*
Y15948D02*
D03*
Y26608D02*
D03*
Y37268D02*
D03*
Y47928D02*
D03*
Y58588D02*
D03*
Y69248D02*
D03*
X19907Y5288D02*
D03*
Y15948D02*
D03*
Y26608D02*
D03*
Y37268D02*
D03*
Y47928D02*
D03*
Y58588D02*
D03*
Y69248D02*
D03*
G54D52*
X4989Y1289D02*
D03*
X41328Y1328D02*
D03*
X41228Y78627D02*
D03*
G54D53*
X40917Y5288D02*
D03*
Y15948D02*
D03*
Y26608D02*
D03*
Y37268D02*
D03*
Y47928D02*
D03*
Y58588D02*
D03*
Y69248D02*
D03*
X19897Y5288D02*
D03*
Y15948D02*
D03*
Y26608D02*
D03*
Y37268D02*
D03*
Y47928D02*
D03*
Y58588D02*
D03*
Y69248D02*
D03*
G54D54*
X41559Y5584D02*
D03*
Y4993D02*
D03*
X40275D02*
D03*
Y5584D02*
D03*
X41559Y16244D02*
D03*
Y15653D02*
D03*
X40275D02*
D03*
Y16244D02*
D03*
X41559Y26904D02*
D03*
Y26313D02*
D03*
X40275D02*
D03*
Y26904D02*
D03*
X41559Y37564D02*
D03*
Y36973D02*
D03*
X40275D02*
D03*
Y37564D02*
D03*
X41559Y48224D02*
D03*
Y47633D02*
D03*
X40275D02*
D03*
Y48224D02*
D03*
X41559Y58884D02*
D03*
Y58293D02*
D03*
X40275D02*
D03*
Y58884D02*
D03*
X41559Y69544D02*
D03*
Y68953D02*
D03*
X40275D02*
D03*
Y69544D02*
D03*
X20539Y5584D02*
D03*
Y4993D02*
D03*
X19255D02*
D03*
Y5584D02*
D03*
X20539Y16244D02*
D03*
Y15653D02*
D03*
X19255D02*
D03*
Y16244D02*
D03*
X20539Y26904D02*
D03*
Y26313D02*
D03*
X19255D02*
D03*
Y26904D02*
D03*
X20539Y37564D02*
D03*
Y36973D02*
D03*
X19255D02*
D03*
Y37564D02*
D03*
X20539Y48224D02*
D03*
Y47633D02*
D03*
X19255D02*
D03*
Y48224D02*
D03*
X20539Y58884D02*
D03*
Y58293D02*
D03*
X19255D02*
D03*
Y58884D02*
D03*
X20539Y69544D02*
D03*
Y68953D02*
D03*
X19255D02*
D03*
Y69544D02*
D03*
G54D55*
X41311Y4646D02*
D03*
X41114D02*
D03*
X40917D02*
D03*
X40720D02*
D03*
X40523D02*
D03*
Y5930D02*
D03*
X40720D02*
D03*
X40917D02*
D03*
X41114D02*
D03*
X41311D02*
D03*
Y15306D02*
D03*
X41114D02*
D03*
X40917D02*
D03*
X40720D02*
D03*
X40523D02*
D03*
Y16590D02*
D03*
X40720D02*
D03*
X40917D02*
D03*
X41114D02*
D03*
X41311D02*
D03*
Y25966D02*
D03*
X41114D02*
D03*
X40917D02*
D03*
X40720D02*
D03*
X40523D02*
D03*
Y27250D02*
D03*
X40720D02*
D03*
X40917D02*
D03*
X41114D02*
D03*
X41311D02*
D03*
Y36626D02*
D03*
X41114D02*
D03*
X40917D02*
D03*
X40720D02*
D03*
X40523D02*
D03*
Y37910D02*
D03*
X40720D02*
D03*
X40917D02*
D03*
X41114D02*
D03*
X41311D02*
D03*
Y47286D02*
D03*
X41114D02*
D03*
X40917D02*
D03*
X40720D02*
D03*
X40523D02*
D03*
Y48570D02*
D03*
X40720D02*
D03*
X40917D02*
D03*
X41114D02*
D03*
X41311D02*
D03*
Y57946D02*
D03*
X41114D02*
D03*
X40917D02*
D03*
X40720D02*
D03*
X40523D02*
D03*
Y59230D02*
D03*
X40720D02*
D03*
X40917D02*
D03*
X41114D02*
D03*
X41311D02*
D03*
Y68606D02*
D03*
X41114D02*
D03*
X40917D02*
D03*
X40720D02*
D03*
X40523D02*
D03*
Y69890D02*
D03*
X40720D02*
D03*
X40917D02*
D03*
X41114D02*
D03*
X41311D02*
D03*
X20291Y4646D02*
D03*
X20094D02*
D03*
X19897D02*
D03*
X19700D02*
D03*
X19503D02*
D03*
Y5930D02*
D03*
X19700D02*
D03*
X19897D02*
D03*
X20094D02*
D03*
X20291D02*
D03*
Y15306D02*
D03*
X20094D02*
D03*
X19897D02*
D03*
X19700D02*
D03*
X19503D02*
D03*
Y16590D02*
D03*
X19700D02*
D03*
X19897D02*
D03*
X20094D02*
D03*
X20291D02*
D03*
Y25966D02*
D03*
X20094D02*
D03*
X19897D02*
D03*
X19700D02*
D03*
X19503D02*
D03*
Y27250D02*
D03*
X19700D02*
D03*
X19897D02*
D03*
X20094D02*
D03*
X20291D02*
D03*
Y36626D02*
D03*
X20094D02*
D03*
X19897D02*
D03*
X19700D02*
D03*
X19503D02*
D03*
Y37910D02*
D03*
X19700D02*
D03*
X19897D02*
D03*
X20094D02*
D03*
X20291D02*
D03*
Y47286D02*
D03*
X20094D02*
D03*
X19897D02*
D03*
X19700D02*
D03*
X19503D02*
D03*
Y48570D02*
D03*
X19700D02*
D03*
X19897D02*
D03*
X20094D02*
D03*
X20291D02*
D03*
Y57946D02*
D03*
X20094D02*
D03*
X19897D02*
D03*
X19700D02*
D03*
X19503D02*
D03*
Y59230D02*
D03*
X19700D02*
D03*
X19897D02*
D03*
X20094D02*
D03*
X20291D02*
D03*
Y68606D02*
D03*
X20094D02*
D03*
X19897D02*
D03*
X19700D02*
D03*
X19503D02*
D03*
Y69890D02*
D03*
X19700D02*
D03*
X19897D02*
D03*
X20094D02*
D03*
X20291D02*
D03*
G54D56*
X41535Y7278D02*
D03*
Y7475D02*
D03*
Y7671D02*
D03*
Y7868D02*
D03*
X40495Y7278D02*
D03*
Y7475D02*
D03*
Y7671D02*
D03*
Y7868D02*
D03*
X41535Y17938D02*
D03*
Y18135D02*
D03*
Y18331D02*
D03*
Y18528D02*
D03*
X40495Y17938D02*
D03*
Y18135D02*
D03*
Y18331D02*
D03*
Y18528D02*
D03*
X41535Y28598D02*
D03*
Y28795D02*
D03*
Y28991D02*
D03*
Y29188D02*
D03*
X40495Y28598D02*
D03*
Y28795D02*
D03*
Y28991D02*
D03*
Y29188D02*
D03*
X41535Y39258D02*
D03*
Y39455D02*
D03*
Y39651D02*
D03*
Y39848D02*
D03*
X40495Y39258D02*
D03*
Y39455D02*
D03*
Y39651D02*
D03*
Y39848D02*
D03*
X41535Y49918D02*
D03*
Y50115D02*
D03*
Y50311D02*
D03*
Y50508D02*
D03*
X40495Y49918D02*
D03*
Y50115D02*
D03*
Y50311D02*
D03*
Y50508D02*
D03*
X41535Y60578D02*
D03*
Y60775D02*
D03*
Y60971D02*
D03*
Y61168D02*
D03*
X40495Y60578D02*
D03*
Y60775D02*
D03*
Y60971D02*
D03*
Y61168D02*
D03*
X41535Y71238D02*
D03*
Y71435D02*
D03*
Y71631D02*
D03*
Y71828D02*
D03*
X40495Y71238D02*
D03*
Y71435D02*
D03*
Y71631D02*
D03*
Y71828D02*
D03*
X20515Y7278D02*
D03*
Y7475D02*
D03*
Y7671D02*
D03*
Y7868D02*
D03*
X19475Y7278D02*
D03*
Y7475D02*
D03*
Y7671D02*
D03*
Y7868D02*
D03*
X20515Y17938D02*
D03*
Y18135D02*
D03*
Y18331D02*
D03*
Y18528D02*
D03*
X19475Y17938D02*
D03*
Y18135D02*
D03*
Y18331D02*
D03*
Y18528D02*
D03*
X20515Y28598D02*
D03*
Y28795D02*
D03*
Y28991D02*
D03*
Y29188D02*
D03*
X19475Y28598D02*
D03*
Y28795D02*
D03*
Y28991D02*
D03*
Y29188D02*
D03*
X20515Y39258D02*
D03*
Y39455D02*
D03*
Y39651D02*
D03*
Y39848D02*
D03*
X19475Y39258D02*
D03*
Y39455D02*
D03*
Y39651D02*
D03*
Y39848D02*
D03*
X20515Y49918D02*
D03*
Y50115D02*
D03*
Y50311D02*
D03*
Y50508D02*
D03*
X19475Y49918D02*
D03*
Y50115D02*
D03*
Y50311D02*
D03*
Y50508D02*
D03*
X20515Y60578D02*
D03*
Y60775D02*
D03*
Y60971D02*
D03*
Y61168D02*
D03*
X19475Y60578D02*
D03*
Y60775D02*
D03*
Y60971D02*
D03*
Y61168D02*
D03*
X20515Y71238D02*
D03*
Y71435D02*
D03*
Y71631D02*
D03*
Y71828D02*
D03*
X19475Y71238D02*
D03*
Y71435D02*
D03*
Y71631D02*
D03*
Y71828D02*
D03*
G54D57*
X41015Y7573D02*
D03*
Y18233D02*
D03*
Y28893D02*
D03*
Y39553D02*
D03*
Y50213D02*
D03*
Y60873D02*
D03*
Y71533D02*
D03*
X19995Y7573D02*
D03*
Y18233D02*
D03*
Y28893D02*
D03*
Y39553D02*
D03*
Y50213D02*
D03*
Y60873D02*
D03*
Y71533D02*
D03*
G54D58*
X31745Y11941D02*
D03*
Y11565D02*
D03*
X41285Y3704D02*
D03*
Y4081D02*
D03*
X41695Y3704D02*
D03*
Y4081D02*
D03*
X41995Y5491D02*
D03*
Y5114D02*
D03*
X40245Y3704D02*
D03*
Y4081D02*
D03*
X40615Y9783D02*
D03*
Y9404D02*
D03*
X40255Y8993D02*
D03*
Y8614D02*
D03*
X31925Y4613D02*
D03*
Y4992D02*
D03*
X28455Y7613D02*
D03*
Y7234D02*
D03*
Y9003D02*
D03*
Y8624D02*
D03*
X31745Y22601D02*
D03*
Y22225D02*
D03*
X41285Y14365D02*
D03*
Y14741D02*
D03*
X41695Y14365D02*
D03*
Y14741D02*
D03*
X41995Y16151D02*
D03*
Y15775D02*
D03*
X40245Y14365D02*
D03*
Y14741D02*
D03*
X40615Y20443D02*
D03*
Y20064D02*
D03*
X40255Y19653D02*
D03*
Y19274D02*
D03*
X31925Y15273D02*
D03*
Y15652D02*
D03*
X28455Y18273D02*
D03*
Y17894D02*
D03*
Y19663D02*
D03*
Y19284D02*
D03*
X31745Y33261D02*
D03*
Y32885D02*
D03*
X41285Y25024D02*
D03*
Y25401D02*
D03*
X41695Y25024D02*
D03*
Y25401D02*
D03*
X41995Y26811D02*
D03*
Y26435D02*
D03*
X40245Y25024D02*
D03*
Y25401D02*
D03*
X40615Y31103D02*
D03*
Y30724D02*
D03*
X40255Y30313D02*
D03*
Y29934D02*
D03*
X31925Y25933D02*
D03*
Y26312D02*
D03*
X28455Y28933D02*
D03*
Y28554D02*
D03*
Y30323D02*
D03*
Y29944D02*
D03*
X31745Y43921D02*
D03*
Y43545D02*
D03*
X41285Y35684D02*
D03*
Y36061D02*
D03*
X41695Y35684D02*
D03*
Y36061D02*
D03*
X41995Y37471D02*
D03*
Y37095D02*
D03*
X40245Y35684D02*
D03*
Y36061D02*
D03*
X40615Y41763D02*
D03*
Y41384D02*
D03*
X40255Y40973D02*
D03*
Y40594D02*
D03*
X31925Y36593D02*
D03*
Y36972D02*
D03*
X28455Y39593D02*
D03*
Y39214D02*
D03*
Y40983D02*
D03*
Y40604D02*
D03*
X31745Y54581D02*
D03*
Y54205D02*
D03*
X41285Y46344D02*
D03*
Y46722D02*
D03*
X41695Y46344D02*
D03*
Y46722D02*
D03*
X41995Y48131D02*
D03*
Y47755D02*
D03*
X40245Y46344D02*
D03*
Y46722D02*
D03*
X40615Y52423D02*
D03*
Y52044D02*
D03*
X40255Y51633D02*
D03*
Y51254D02*
D03*
X31925Y47253D02*
D03*
Y47632D02*
D03*
X28455Y50253D02*
D03*
Y49874D02*
D03*
Y51643D02*
D03*
Y51264D02*
D03*
X31745Y65241D02*
D03*
Y64865D02*
D03*
X41285Y57004D02*
D03*
Y57382D02*
D03*
X41695Y57004D02*
D03*
Y57382D02*
D03*
X41995Y58791D02*
D03*
Y58415D02*
D03*
X40245Y57004D02*
D03*
Y57382D02*
D03*
X40615Y63083D02*
D03*
Y62704D02*
D03*
X40255Y62293D02*
D03*
Y61914D02*
D03*
X31925Y57913D02*
D03*
Y58292D02*
D03*
X28455Y60913D02*
D03*
Y60534D02*
D03*
Y62303D02*
D03*
Y61924D02*
D03*
X31745Y75901D02*
D03*
Y75525D02*
D03*
X41285Y67664D02*
D03*
Y68042D02*
D03*
X41695Y67664D02*
D03*
Y68042D02*
D03*
X41995Y69451D02*
D03*
Y69075D02*
D03*
X40245Y67664D02*
D03*
Y68042D02*
D03*
X40615Y73743D02*
D03*
Y73364D02*
D03*
X40255Y72953D02*
D03*
Y72574D02*
D03*
X31925Y68573D02*
D03*
Y68952D02*
D03*
X28455Y71573D02*
D03*
Y71194D02*
D03*
Y72963D02*
D03*
Y72584D02*
D03*
X10725Y11941D02*
D03*
Y11565D02*
D03*
X20265Y3704D02*
D03*
Y4081D02*
D03*
X20675Y3704D02*
D03*
Y4081D02*
D03*
X20975Y5491D02*
D03*
Y5114D02*
D03*
X19225Y3704D02*
D03*
Y4081D02*
D03*
X19595Y9783D02*
D03*
Y9404D02*
D03*
X19235Y8993D02*
D03*
Y8614D02*
D03*
X10905Y4613D02*
D03*
Y4992D02*
D03*
X7435Y7613D02*
D03*
Y7234D02*
D03*
Y9003D02*
D03*
Y8624D02*
D03*
X10725Y22601D02*
D03*
Y22225D02*
D03*
X20265Y14365D02*
D03*
Y14741D02*
D03*
X20675Y14365D02*
D03*
Y14741D02*
D03*
X20975Y16151D02*
D03*
Y15775D02*
D03*
X19225Y14365D02*
D03*
Y14741D02*
D03*
X19595Y20443D02*
D03*
Y20064D02*
D03*
X19235Y19653D02*
D03*
Y19274D02*
D03*
X10905Y15273D02*
D03*
Y15652D02*
D03*
X7435Y18273D02*
D03*
Y17894D02*
D03*
Y19663D02*
D03*
Y19284D02*
D03*
X10725Y33261D02*
D03*
Y32885D02*
D03*
X20265Y25024D02*
D03*
Y25401D02*
D03*
X20675Y25024D02*
D03*
Y25401D02*
D03*
X20975Y26811D02*
D03*
Y26435D02*
D03*
X19225Y25024D02*
D03*
Y25401D02*
D03*
X19595Y31103D02*
D03*
Y30724D02*
D03*
X19235Y30313D02*
D03*
Y29934D02*
D03*
X10905Y25933D02*
D03*
Y26312D02*
D03*
X7435Y28933D02*
D03*
Y28554D02*
D03*
Y30323D02*
D03*
Y29944D02*
D03*
X10725Y43921D02*
D03*
Y43545D02*
D03*
X20265Y35684D02*
D03*
Y36061D02*
D03*
X20675Y35684D02*
D03*
Y36061D02*
D03*
X20975Y37471D02*
D03*
Y37095D02*
D03*
X19225Y35684D02*
D03*
Y36061D02*
D03*
X19595Y41763D02*
D03*
Y41384D02*
D03*
X19235Y40973D02*
D03*
Y40594D02*
D03*
X10905Y36593D02*
D03*
Y36972D02*
D03*
X7435Y39593D02*
D03*
Y39214D02*
D03*
Y40983D02*
D03*
Y40604D02*
D03*
X10725Y54581D02*
D03*
Y54205D02*
D03*
X20265Y46344D02*
D03*
Y46722D02*
D03*
X20675Y46344D02*
D03*
Y46722D02*
D03*
X20975Y48131D02*
D03*
Y47755D02*
D03*
X19225Y46344D02*
D03*
Y46722D02*
D03*
X19595Y52423D02*
D03*
Y52044D02*
D03*
X19235Y51633D02*
D03*
Y51254D02*
D03*
X10905Y47253D02*
D03*
Y47632D02*
D03*
X7435Y50253D02*
D03*
Y49874D02*
D03*
Y51643D02*
D03*
Y51264D02*
D03*
X10725Y65241D02*
D03*
Y64865D02*
D03*
X20265Y57004D02*
D03*
Y57382D02*
D03*
X20675Y57004D02*
D03*
Y57382D02*
D03*
X20975Y58791D02*
D03*
Y58415D02*
D03*
X19225Y57004D02*
D03*
Y57382D02*
D03*
X19595Y63083D02*
D03*
Y62704D02*
D03*
X19235Y62293D02*
D03*
Y61914D02*
D03*
X10905Y57913D02*
D03*
Y58292D02*
D03*
X7435Y60913D02*
D03*
Y60534D02*
D03*
Y62303D02*
D03*
Y61924D02*
D03*
X10725Y75901D02*
D03*
Y75525D02*
D03*
X20265Y67664D02*
D03*
Y68042D02*
D03*
X20675Y67664D02*
D03*
Y68042D02*
D03*
X20975Y69451D02*
D03*
Y69075D02*
D03*
X19225Y67664D02*
D03*
Y68042D02*
D03*
X19595Y73743D02*
D03*
Y73364D02*
D03*
X19235Y72953D02*
D03*
Y72574D02*
D03*
X10905Y68573D02*
D03*
Y68952D02*
D03*
X7435Y71573D02*
D03*
Y71194D02*
D03*
Y72963D02*
D03*
Y72584D02*
D03*
G54D59*
X32238Y12019D02*
D03*
X32632D02*
D03*
X32633Y11487D02*
D03*
X32435D02*
D03*
X32237D02*
D03*
X32238Y22679D02*
D03*
X32632D02*
D03*
X32633Y22147D02*
D03*
X32435D02*
D03*
X32237D02*
D03*
X32238Y33339D02*
D03*
X32632D02*
D03*
X32633Y32807D02*
D03*
X32435D02*
D03*
X32237D02*
D03*
X32238Y43999D02*
D03*
X32632D02*
D03*
X32633Y43467D02*
D03*
X32435D02*
D03*
X32237D02*
D03*
X32238Y54659D02*
D03*
X32632D02*
D03*
X32633Y54127D02*
D03*
X32435D02*
D03*
X32237D02*
D03*
X32238Y65319D02*
D03*
X32632D02*
D03*
X32633Y64787D02*
D03*
X32435D02*
D03*
X32237D02*
D03*
X32238Y75979D02*
D03*
X32632D02*
D03*
X32633Y75447D02*
D03*
X32435D02*
D03*
X32237D02*
D03*
X11218Y12019D02*
D03*
X11612D02*
D03*
X11613Y11487D02*
D03*
X11415D02*
D03*
X11217D02*
D03*
X11218Y22679D02*
D03*
X11612D02*
D03*
X11613Y22147D02*
D03*
X11415D02*
D03*
X11217D02*
D03*
X11218Y33339D02*
D03*
X11612D02*
D03*
X11613Y32807D02*
D03*
X11415D02*
D03*
X11217D02*
D03*
X11218Y43999D02*
D03*
X11612D02*
D03*
X11613Y43467D02*
D03*
X11415D02*
D03*
X11217D02*
D03*
X11218Y54659D02*
D03*
X11612D02*
D03*
X11613Y54127D02*
D03*
X11415D02*
D03*
X11217D02*
D03*
X11218Y65319D02*
D03*
X11612D02*
D03*
X11613Y64787D02*
D03*
X11415D02*
D03*
X11217D02*
D03*
X11218Y75979D02*
D03*
X11612D02*
D03*
X11613Y75447D02*
D03*
X11415D02*
D03*
X11217D02*
D03*
G54D60*
X42324Y9273D02*
D03*
X41945D02*
D03*
X32305Y10873D02*
D03*
X31926D02*
D03*
X32076Y12433D02*
D03*
X32455D02*
D03*
X40486Y6893D02*
D03*
X40863D02*
D03*
X41086Y8603D02*
D03*
X41463D02*
D03*
X42324Y19933D02*
D03*
X41945D02*
D03*
X32305Y21533D02*
D03*
X31926D02*
D03*
X32076Y23093D02*
D03*
X32455D02*
D03*
X40486Y17553D02*
D03*
X40863D02*
D03*
X41086Y19263D02*
D03*
X41463D02*
D03*
X42324Y30593D02*
D03*
X41945D02*
D03*
X32305Y32193D02*
D03*
X31926D02*
D03*
X32076Y33753D02*
D03*
X32455D02*
D03*
X40486Y28213D02*
D03*
X40863D02*
D03*
X41086Y29923D02*
D03*
X41463D02*
D03*
X42324Y41253D02*
D03*
X41945D02*
D03*
X32305Y42853D02*
D03*
X31926D02*
D03*
X32076Y44413D02*
D03*
X32455D02*
D03*
X40486Y38873D02*
D03*
X40863D02*
D03*
X41086Y40583D02*
D03*
X41463D02*
D03*
X42324Y51913D02*
D03*
X41945D02*
D03*
X32305Y53513D02*
D03*
X31926D02*
D03*
X32076Y55073D02*
D03*
X32455D02*
D03*
X40486Y49533D02*
D03*
X40863D02*
D03*
X41086Y51243D02*
D03*
X41463D02*
D03*
X42324Y62573D02*
D03*
X41945D02*
D03*
X32305Y64173D02*
D03*
X31926D02*
D03*
X32076Y65733D02*
D03*
X32455D02*
D03*
X40486Y60193D02*
D03*
X40863D02*
D03*
X41086Y61903D02*
D03*
X41463D02*
D03*
X42324Y73233D02*
D03*
X41945D02*
D03*
X32305Y74833D02*
D03*
X31926D02*
D03*
X32076Y76393D02*
D03*
X32455D02*
D03*
X40486Y70853D02*
D03*
X40863D02*
D03*
X41086Y72563D02*
D03*
X41463D02*
D03*
X21304Y9273D02*
D03*
X20925D02*
D03*
X11285Y10873D02*
D03*
X10906D02*
D03*
X11056Y12433D02*
D03*
X11435D02*
D03*
X19466Y6893D02*
D03*
X19843D02*
D03*
X20066Y8603D02*
D03*
X20443D02*
D03*
X21304Y19933D02*
D03*
X20925D02*
D03*
X11285Y21533D02*
D03*
X10906D02*
D03*
X11056Y23093D02*
D03*
X11435D02*
D03*
X19466Y17553D02*
D03*
X19843D02*
D03*
X20066Y19263D02*
D03*
X20443D02*
D03*
X21304Y30593D02*
D03*
X20925D02*
D03*
X11285Y32193D02*
D03*
X10906D02*
D03*
X11056Y33753D02*
D03*
X11435D02*
D03*
X19466Y28213D02*
D03*
X19843D02*
D03*
X20066Y29923D02*
D03*
X20443D02*
D03*
X21304Y41253D02*
D03*
X20925D02*
D03*
X11285Y42853D02*
D03*
X10906D02*
D03*
X11056Y44413D02*
D03*
X11435D02*
D03*
X19466Y38873D02*
D03*
X19843D02*
D03*
X20066Y40583D02*
D03*
X20443D02*
D03*
X21304Y51913D02*
D03*
X20925D02*
D03*
X11285Y53513D02*
D03*
X10906D02*
D03*
X11056Y55073D02*
D03*
X11435D02*
D03*
X19466Y49533D02*
D03*
X19843D02*
D03*
X20066Y51243D02*
D03*
X20443D02*
D03*
X21304Y62573D02*
D03*
X20925D02*
D03*
X11285Y64173D02*
D03*
X10906D02*
D03*
X11056Y65733D02*
D03*
X11435D02*
D03*
X19466Y60193D02*
D03*
X19843D02*
D03*
X20066Y61903D02*
D03*
X20443D02*
D03*
X21304Y73233D02*
D03*
X20925D02*
D03*
X11285Y74833D02*
D03*
X10906D02*
D03*
X11056Y76393D02*
D03*
X11435D02*
D03*
X19466Y70853D02*
D03*
X19843D02*
D03*
X20066Y72563D02*
D03*
X20443D02*
D03*
G54D61*
X41985Y10433D02*
D03*
X25285Y5923D02*
D03*
X41985Y21093D02*
D03*
X25285Y16583D02*
D03*
X41985Y31753D02*
D03*
X25285Y27243D02*
D03*
X41985Y42413D02*
D03*
X25285Y37903D02*
D03*
X41985Y53073D02*
D03*
X25285Y48563D02*
D03*
X41985Y63733D02*
D03*
X25285Y59223D02*
D03*
X41985Y74393D02*
D03*
X25285Y69883D02*
D03*
X20965Y10433D02*
D03*
X4265Y5923D02*
D03*
X20965Y21093D02*
D03*
X4265Y16583D02*
D03*
X20965Y31753D02*
D03*
X4265Y27243D02*
D03*
X20965Y42413D02*
D03*
X4265Y37903D02*
D03*
X20965Y53073D02*
D03*
X4265Y48563D02*
D03*
X20965Y63733D02*
D03*
X4265Y59223D02*
D03*
X20965Y74393D02*
D03*
X4265Y69883D02*
D03*
G54D62*
X41541Y9015D02*
D03*
Y9213D02*
D03*
Y9411D02*
D03*
X41009Y9410D02*
D03*
Y9016D02*
D03*
X41541Y19675D02*
D03*
Y19873D02*
D03*
Y20071D02*
D03*
X41009Y20070D02*
D03*
Y19676D02*
D03*
X41541Y30335D02*
D03*
Y30533D02*
D03*
Y30731D02*
D03*
X41009Y30730D02*
D03*
Y30336D02*
D03*
X41541Y40995D02*
D03*
Y41193D02*
D03*
Y41391D02*
D03*
X41009Y41390D02*
D03*
Y40996D02*
D03*
X41541Y51655D02*
D03*
Y51853D02*
D03*
Y52051D02*
D03*
X41009Y52050D02*
D03*
Y51656D02*
D03*
X41541Y62315D02*
D03*
Y62513D02*
D03*
Y62711D02*
D03*
X41009Y62710D02*
D03*
Y62316D02*
D03*
X41541Y72975D02*
D03*
Y73173D02*
D03*
Y73371D02*
D03*
X41009Y73370D02*
D03*
Y72976D02*
D03*
X20521Y9015D02*
D03*
Y9213D02*
D03*
Y9411D02*
D03*
X19989Y9410D02*
D03*
Y9016D02*
D03*
X20521Y19675D02*
D03*
Y19873D02*
D03*
Y20071D02*
D03*
X19989Y20070D02*
D03*
Y19676D02*
D03*
X20521Y30335D02*
D03*
Y30533D02*
D03*
Y30731D02*
D03*
X19989Y30730D02*
D03*
Y30336D02*
D03*
X20521Y40995D02*
D03*
Y41193D02*
D03*
Y41391D02*
D03*
X19989Y41390D02*
D03*
Y40996D02*
D03*
X20521Y51655D02*
D03*
Y51853D02*
D03*
Y52051D02*
D03*
X19989Y52050D02*
D03*
Y51656D02*
D03*
X20521Y62315D02*
D03*
Y62513D02*
D03*
Y62711D02*
D03*
X19989Y62710D02*
D03*
Y62316D02*
D03*
X20521Y72975D02*
D03*
Y73173D02*
D03*
Y73371D02*
D03*
X19989Y73370D02*
D03*
Y72976D02*
D03*
G54D63*
X30777Y7350D02*
D03*
X38635Y4973D02*
D03*
X34915D02*
D03*
X27027Y7350D02*
D03*
X30777Y18010D02*
D03*
X38635Y15633D02*
D03*
X34915D02*
D03*
X27027Y18010D02*
D03*
X30777Y28670D02*
D03*
X38635Y26293D02*
D03*
X34915D02*
D03*
X27027Y28670D02*
D03*
X30777Y39330D02*
D03*
X38635Y36953D02*
D03*
X34915D02*
D03*
X27027Y39330D02*
D03*
X30777Y49990D02*
D03*
X38635Y47613D02*
D03*
X34915D02*
D03*
X27027Y49990D02*
D03*
X30777Y60650D02*
D03*
X38635Y58273D02*
D03*
X34915D02*
D03*
X27027Y60650D02*
D03*
X30777Y71310D02*
D03*
X38635Y68933D02*
D03*
X34915D02*
D03*
X27027Y71310D02*
D03*
X9757Y7350D02*
D03*
X17615Y4973D02*
D03*
X13895D02*
D03*
X6007Y7350D02*
D03*
X9757Y18010D02*
D03*
X17615Y15633D02*
D03*
X13895D02*
D03*
X6007Y18010D02*
D03*
X9757Y28670D02*
D03*
X17615Y26293D02*
D03*
X13895D02*
D03*
X6007Y28670D02*
D03*
X9757Y39330D02*
D03*
X17615Y36953D02*
D03*
X13895D02*
D03*
X6007Y39330D02*
D03*
X9757Y49990D02*
D03*
X17615Y47613D02*
D03*
X13895D02*
D03*
X6007Y49990D02*
D03*
X9757Y60650D02*
D03*
X17615Y58273D02*
D03*
X13895D02*
D03*
X6007Y60650D02*
D03*
X9757Y71310D02*
D03*
X17615Y68933D02*
D03*
X13895D02*
D03*
X6007Y71310D02*
D03*
G54D64*
X29777Y7350D02*
D03*
X30777Y8350D02*
D03*
X29777D02*
D03*
X30777Y9350D02*
D03*
X29777D02*
D03*
X30777Y10350D02*
D03*
X29777D02*
D03*
X30777Y11350D02*
D03*
X29777D02*
D03*
X37635Y8973D02*
D03*
X38635D02*
D03*
X37635Y7973D02*
D03*
X38635D02*
D03*
X37635Y6973D02*
D03*
X38635D02*
D03*
X37635Y5973D02*
D03*
X38635D02*
D03*
X37635Y4973D02*
D03*
X33915Y8973D02*
D03*
X34915D02*
D03*
X33915Y7973D02*
D03*
X34915D02*
D03*
X33915Y6973D02*
D03*
X34915D02*
D03*
X33915Y5973D02*
D03*
X34915D02*
D03*
X33915Y4973D02*
D03*
X26027Y7350D02*
D03*
X27027Y8350D02*
D03*
X26027D02*
D03*
X27027Y9350D02*
D03*
X26027D02*
D03*
X27027Y10350D02*
D03*
X26027D02*
D03*
X27027Y11350D02*
D03*
X26027D02*
D03*
X29777Y18010D02*
D03*
X30777Y19010D02*
D03*
X29777D02*
D03*
X30777Y20010D02*
D03*
X29777D02*
D03*
X30777Y21010D02*
D03*
X29777D02*
D03*
X30777Y22010D02*
D03*
X29777D02*
D03*
X37635Y19633D02*
D03*
X38635D02*
D03*
X37635Y18633D02*
D03*
X38635D02*
D03*
X37635Y17633D02*
D03*
X38635D02*
D03*
X37635Y16633D02*
D03*
X38635D02*
D03*
X37635Y15633D02*
D03*
X33915Y19633D02*
D03*
X34915D02*
D03*
X33915Y18633D02*
D03*
X34915D02*
D03*
X33915Y17633D02*
D03*
X34915D02*
D03*
X33915Y16633D02*
D03*
X34915D02*
D03*
X33915Y15633D02*
D03*
X26027Y18010D02*
D03*
X27027Y19010D02*
D03*
X26027D02*
D03*
X27027Y20010D02*
D03*
X26027D02*
D03*
X27027Y21010D02*
D03*
X26027D02*
D03*
X27027Y22010D02*
D03*
X26027D02*
D03*
X29777Y28670D02*
D03*
X30777Y29670D02*
D03*
X29777D02*
D03*
X30777Y30670D02*
D03*
X29777D02*
D03*
X30777Y31670D02*
D03*
X29777D02*
D03*
X30777Y32670D02*
D03*
X29777D02*
D03*
X37635Y30293D02*
D03*
X38635D02*
D03*
X37635Y29293D02*
D03*
X38635D02*
D03*
X37635Y28293D02*
D03*
X38635D02*
D03*
X37635Y27293D02*
D03*
X38635D02*
D03*
X37635Y26293D02*
D03*
X33915Y30293D02*
D03*
X34915D02*
D03*
X33915Y29293D02*
D03*
X34915D02*
D03*
X33915Y28293D02*
D03*
X34915D02*
D03*
X33915Y27293D02*
D03*
X34915D02*
D03*
X33915Y26293D02*
D03*
X26027Y28670D02*
D03*
X27027Y29670D02*
D03*
X26027D02*
D03*
X27027Y30670D02*
D03*
X26027D02*
D03*
X27027Y31670D02*
D03*
X26027D02*
D03*
X27027Y32670D02*
D03*
X26027D02*
D03*
X29777Y39330D02*
D03*
X30777Y40330D02*
D03*
X29777D02*
D03*
X30777Y41330D02*
D03*
X29777D02*
D03*
X30777Y42330D02*
D03*
X29777D02*
D03*
X30777Y43330D02*
D03*
X29777D02*
D03*
X37635Y40953D02*
D03*
X38635D02*
D03*
X37635Y39953D02*
D03*
X38635D02*
D03*
X37635Y38953D02*
D03*
X38635D02*
D03*
X37635Y37953D02*
D03*
X38635D02*
D03*
X37635Y36953D02*
D03*
X33915Y40953D02*
D03*
X34915D02*
D03*
X33915Y39953D02*
D03*
X34915D02*
D03*
X33915Y38953D02*
D03*
X34915D02*
D03*
X33915Y37953D02*
D03*
X34915D02*
D03*
X33915Y36953D02*
D03*
X26027Y39330D02*
D03*
X27027Y40330D02*
D03*
X26027D02*
D03*
X27027Y41330D02*
D03*
X26027D02*
D03*
X27027Y42330D02*
D03*
X26027D02*
D03*
X27027Y43330D02*
D03*
X26027D02*
D03*
X29777Y49990D02*
D03*
X30777Y50990D02*
D03*
X29777D02*
D03*
X30777Y51990D02*
D03*
X29777D02*
D03*
X30777Y52990D02*
D03*
X29777D02*
D03*
X30777Y53990D02*
D03*
X29777D02*
D03*
X37635Y51613D02*
D03*
X38635D02*
D03*
X37635Y50613D02*
D03*
X38635D02*
D03*
X37635Y49613D02*
D03*
X38635D02*
D03*
X37635Y48613D02*
D03*
X38635D02*
D03*
X37635Y47613D02*
D03*
X33915Y51613D02*
D03*
X34915D02*
D03*
X33915Y50613D02*
D03*
X34915D02*
D03*
X33915Y49613D02*
D03*
X34915D02*
D03*
X33915Y48613D02*
D03*
X34915D02*
D03*
X33915Y47613D02*
D03*
X26027Y49990D02*
D03*
X27027Y50990D02*
D03*
X26027D02*
D03*
X27027Y51990D02*
D03*
X26027D02*
D03*
X27027Y52990D02*
D03*
X26027D02*
D03*
X27027Y53990D02*
D03*
X26027D02*
D03*
X29777Y60650D02*
D03*
X30777Y61650D02*
D03*
X29777D02*
D03*
X30777Y62650D02*
D03*
X29777D02*
D03*
X30777Y63650D02*
D03*
X29777D02*
D03*
X30777Y64650D02*
D03*
X29777D02*
D03*
X37635Y62273D02*
D03*
X38635D02*
D03*
X37635Y61273D02*
D03*
X38635D02*
D03*
X37635Y60273D02*
D03*
X38635D02*
D03*
X37635Y59273D02*
D03*
X38635D02*
D03*
X37635Y58273D02*
D03*
X33915Y62273D02*
D03*
X34915D02*
D03*
X33915Y61273D02*
D03*
X34915D02*
D03*
X33915Y60273D02*
D03*
X34915D02*
D03*
X33915Y59273D02*
D03*
X34915D02*
D03*
X33915Y58273D02*
D03*
X26027Y60650D02*
D03*
X27027Y61650D02*
D03*
X26027D02*
D03*
X27027Y62650D02*
D03*
X26027D02*
D03*
X27027Y63650D02*
D03*
X26027D02*
D03*
X27027Y64650D02*
D03*
X26027D02*
D03*
X29777Y71310D02*
D03*
X30777Y72310D02*
D03*
X29777D02*
D03*
X30777Y73310D02*
D03*
X29777D02*
D03*
X30777Y74310D02*
D03*
X29777D02*
D03*
X30777Y75310D02*
D03*
X29777D02*
D03*
X37635Y72933D02*
D03*
X38635D02*
D03*
X37635Y71933D02*
D03*
X38635D02*
D03*
X37635Y70933D02*
D03*
X38635D02*
D03*
X37635Y69933D02*
D03*
X38635D02*
D03*
X37635Y68933D02*
D03*
X33915Y72933D02*
D03*
X34915D02*
D03*
X33915Y71933D02*
D03*
X34915D02*
D03*
X33915Y70933D02*
D03*
X34915D02*
D03*
X33915Y69933D02*
D03*
X34915D02*
D03*
X33915Y68933D02*
D03*
X26027Y71310D02*
D03*
X27027Y72310D02*
D03*
X26027D02*
D03*
X27027Y73310D02*
D03*
X26027D02*
D03*
X27027Y74310D02*
D03*
X26027D02*
D03*
X27027Y75310D02*
D03*
X26027D02*
D03*
X8757Y7350D02*
D03*
X9757Y8350D02*
D03*
X8757D02*
D03*
X9757Y9350D02*
D03*
X8757D02*
D03*
X9757Y10350D02*
D03*
X8757D02*
D03*
X9757Y11350D02*
D03*
X8757D02*
D03*
X16615Y8973D02*
D03*
X17615D02*
D03*
X16615Y7973D02*
D03*
X17615D02*
D03*
X16615Y6973D02*
D03*
X17615D02*
D03*
X16615Y5973D02*
D03*
X17615D02*
D03*
X16615Y4973D02*
D03*
X12895Y8973D02*
D03*
X13895D02*
D03*
X12895Y7973D02*
D03*
X13895D02*
D03*
X12895Y6973D02*
D03*
X13895D02*
D03*
X12895Y5973D02*
D03*
X13895D02*
D03*
X12895Y4973D02*
D03*
X5007Y7350D02*
D03*
X6007Y8350D02*
D03*
X5007D02*
D03*
X6007Y9350D02*
D03*
X5007D02*
D03*
X6007Y10350D02*
D03*
X5007D02*
D03*
X6007Y11350D02*
D03*
X5007D02*
D03*
X8757Y18010D02*
D03*
X9757Y19010D02*
D03*
X8757D02*
D03*
X9757Y20010D02*
D03*
X8757D02*
D03*
X9757Y21010D02*
D03*
X8757D02*
D03*
X9757Y22010D02*
D03*
X8757D02*
D03*
X16615Y19633D02*
D03*
X17615D02*
D03*
X16615Y18633D02*
D03*
X17615D02*
D03*
X16615Y17633D02*
D03*
X17615D02*
D03*
X16615Y16633D02*
D03*
X17615D02*
D03*
X16615Y15633D02*
D03*
X12895Y19633D02*
D03*
X13895D02*
D03*
X12895Y18633D02*
D03*
X13895D02*
D03*
X12895Y17633D02*
D03*
X13895D02*
D03*
X12895Y16633D02*
D03*
X13895D02*
D03*
X12895Y15633D02*
D03*
X5007Y18010D02*
D03*
X6007Y19010D02*
D03*
X5007D02*
D03*
X6007Y20010D02*
D03*
X5007D02*
D03*
X6007Y21010D02*
D03*
X5007D02*
D03*
X6007Y22010D02*
D03*
X5007D02*
D03*
X8757Y28670D02*
D03*
X9757Y29670D02*
D03*
X8757D02*
D03*
X9757Y30670D02*
D03*
X8757D02*
D03*
X9757Y31670D02*
D03*
X8757D02*
D03*
X9757Y32670D02*
D03*
X8757D02*
D03*
X16615Y30293D02*
D03*
X17615D02*
D03*
X16615Y29293D02*
D03*
X17615D02*
D03*
X16615Y28293D02*
D03*
X17615D02*
D03*
X16615Y27293D02*
D03*
X17615D02*
D03*
X16615Y26293D02*
D03*
X12895Y30293D02*
D03*
X13895D02*
D03*
X12895Y29293D02*
D03*
X13895D02*
D03*
X12895Y28293D02*
D03*
X13895D02*
D03*
X12895Y27293D02*
D03*
X13895D02*
D03*
X12895Y26293D02*
D03*
X5007Y28670D02*
D03*
X6007Y29670D02*
D03*
X5007D02*
D03*
X6007Y30670D02*
D03*
X5007D02*
D03*
X6007Y31670D02*
D03*
X5007D02*
D03*
X6007Y32670D02*
D03*
X5007D02*
D03*
X8757Y39330D02*
D03*
X9757Y40330D02*
D03*
X8757D02*
D03*
X9757Y41330D02*
D03*
X8757D02*
D03*
X9757Y42330D02*
D03*
X8757D02*
D03*
X9757Y43330D02*
D03*
X8757D02*
D03*
X16615Y40953D02*
D03*
X17615D02*
D03*
X16615Y39953D02*
D03*
X17615D02*
D03*
X16615Y38953D02*
D03*
X17615D02*
D03*
X16615Y37953D02*
D03*
X17615D02*
D03*
X16615Y36953D02*
D03*
X12895Y40953D02*
D03*
X13895D02*
D03*
X12895Y39953D02*
D03*
X13895D02*
D03*
X12895Y38953D02*
D03*
X13895D02*
D03*
X12895Y37953D02*
D03*
X13895D02*
D03*
X12895Y36953D02*
D03*
X5007Y39330D02*
D03*
X6007Y40330D02*
D03*
X5007D02*
D03*
X6007Y41330D02*
D03*
X5007D02*
D03*
X6007Y42330D02*
D03*
X5007D02*
D03*
X6007Y43330D02*
D03*
X5007D02*
D03*
X8757Y49990D02*
D03*
X9757Y50990D02*
D03*
X8757D02*
D03*
X9757Y51990D02*
D03*
X8757D02*
D03*
X9757Y52990D02*
D03*
X8757D02*
D03*
X9757Y53990D02*
D03*
X8757D02*
D03*
X16615Y51613D02*
D03*
X17615D02*
D03*
X16615Y50613D02*
D03*
X17615D02*
D03*
X16615Y49613D02*
D03*
X17615D02*
D03*
X16615Y48613D02*
D03*
X17615D02*
D03*
X16615Y47613D02*
D03*
X12895Y51613D02*
D03*
X13895D02*
D03*
X12895Y50613D02*
D03*
X13895D02*
D03*
X12895Y49613D02*
D03*
X13895D02*
D03*
X12895Y48613D02*
D03*
X13895D02*
D03*
X12895Y47613D02*
D03*
X5007Y49990D02*
D03*
X6007Y50990D02*
D03*
X5007D02*
D03*
X6007Y51990D02*
D03*
X5007D02*
D03*
X6007Y52990D02*
D03*
X5007D02*
D03*
X6007Y53990D02*
D03*
X5007D02*
D03*
X8757Y60650D02*
D03*
X9757Y61650D02*
D03*
X8757D02*
D03*
X9757Y62650D02*
D03*
X8757D02*
D03*
X9757Y63650D02*
D03*
X8757D02*
D03*
X9757Y64650D02*
D03*
X8757D02*
D03*
X16615Y62273D02*
D03*
X17615D02*
D03*
X16615Y61273D02*
D03*
X17615D02*
D03*
X16615Y60273D02*
D03*
X17615D02*
D03*
X16615Y59273D02*
D03*
X17615D02*
D03*
X16615Y58273D02*
D03*
X12895Y62273D02*
D03*
X13895D02*
D03*
X12895Y61273D02*
D03*
X13895D02*
D03*
X12895Y60273D02*
D03*
X13895D02*
D03*
X12895Y59273D02*
D03*
X13895D02*
D03*
X12895Y58273D02*
D03*
X5007Y60650D02*
D03*
X6007Y61650D02*
D03*
X5007D02*
D03*
X6007Y62650D02*
D03*
X5007D02*
D03*
X6007Y63650D02*
D03*
X5007D02*
D03*
X6007Y64650D02*
D03*
X5007D02*
D03*
X8757Y71310D02*
D03*
X9757Y72310D02*
D03*
X8757D02*
D03*
X9757Y73310D02*
D03*
X8757D02*
D03*
X9757Y74310D02*
D03*
X8757D02*
D03*
X9757Y75310D02*
D03*
X8757D02*
D03*
X16615Y72933D02*
D03*
X17615D02*
D03*
X16615Y71933D02*
D03*
X17615D02*
D03*
X16615Y70933D02*
D03*
X17615D02*
D03*
X16615Y69933D02*
D03*
X17615D02*
D03*
X16615Y68933D02*
D03*
X12895Y72933D02*
D03*
X13895D02*
D03*
X12895Y71933D02*
D03*
X13895D02*
D03*
X12895Y70933D02*
D03*
X13895D02*
D03*
X12895Y69933D02*
D03*
X13895D02*
D03*
X12895Y68933D02*
D03*
X5007Y71310D02*
D03*
X6007Y72310D02*
D03*
X5007D02*
D03*
X6007Y73310D02*
D03*
X5007D02*
D03*
X6007Y74310D02*
D03*
X5007D02*
D03*
X6007Y75310D02*
D03*
X5007D02*
D03*
M02*
