M48
;Layer_Color=9474304
;FILE_FORMAT=2:4
INCH,TZ
;TYPE=PLATED
T1F00S00C0.0100
T2F00S00C0.0354
;TYPE=NON_PLATED
T3F00S00C0.1181
%
T01
X4985Y6283
X6575Y5823
X8385Y5633
X10185
X10635Y5193
X11175Y4613
X11765Y4093
X11055Y3543
X12565Y3303
X14385Y3293
X16025Y3303
X15585Y4433
X14475Y5113
X14465Y5973
X16045Y5963
X17115Y6233
X18055Y5643
X18945Y5713
X18935Y6283
X19495
X20085
X20515
X20113Y5505
X19680
Y5072
X20113
X20265Y4333
X19585Y4263
X18965Y4083
X18915Y4993
X18145Y4353
X17795Y3293
X20975Y4873
X12355Y5133
X11775Y5653
X26005Y6283
X27595Y5823
X29405Y5633
X31205
X31655Y5193
X32195Y4613
X32785Y4093
X32075Y3543
X33585Y3303
X35405Y3293
X37045Y3303
X36605Y4433
X35495Y5113
X35485Y5973
X37065Y5963
X33375Y5133
X32795Y5653
X38135Y6233
X39075Y5643
X39965Y5713
X39955Y6283
X40515
X41105
X41535
X41133Y5505
X40700
Y5072
X41133
X41285Y4333
X40605Y4263
X39985Y4083
X39935Y4993
X39165Y4353
X38815Y3293
X41995Y4873
X42055Y7233
X41425Y6893
X41135
X40215
X39625Y6993
X39045Y7313
X39055Y6593
X38135Y7233
Y8243
X37945Y9733
X37955Y10753
X39385Y10793
X39615Y9743
X39605Y9043
X39625Y8023
X40215Y7973
Y7673
X40255Y8283
X40835Y8603
X41465Y8333
X42055Y8983
X42475Y8613
X42615Y9803
X42565Y10833
X41045Y10853
X41545Y9653
X41285Y14993
X40605Y14923
X39985Y14743
X39935Y15653
X39965Y16373
X39955Y16943
X40515
X41105
X41535
X41425Y17553
X41135
X40215
X39625Y17653
X39045Y17973
X39055Y17253
X39075Y16303
X39165Y15013
X38815Y13953
X38135Y16893
Y17893
Y18903
X37945Y20393
X37955Y21413
X39385Y21453
X39615Y20403
X39605Y19703
X39625Y18683
X40215Y18633
Y18333
X40255Y18943
X40835Y19263
X41465Y18993
X42055Y19643
X42475Y19273
X42615Y20463
X42565Y21493
X41045Y21513
X41545Y20313
X42055Y17893
X41995Y15533
X41133Y15732
X40700
Y16165
X41133
X37065Y16623
X37055Y17633
Y18643
Y19663
X35465Y19653
Y18643
Y17643
X35485Y16633
X35495Y15773
X36605Y15093
X37045Y13963
X35405Y13953
X33585Y13963
X32785Y14753
X32195Y15273
X31655Y15853
X31205Y16293
X31325Y17533
X28855
X28125Y17763
X28115Y19013
X28095Y20023
X28115Y21033
X28175Y21883
X29085Y21003
X29205Y20013
Y19013
X29405Y16293
X27595Y16483
X26005Y16943
X25055Y17973
X25045Y19543
X25785Y19503
X26535Y19703
Y20733
X25795Y20493
Y21513
X25045Y21323
X26535Y21723
Y18613
X26895Y12653
X26165Y11883
X26535Y11063
X25795Y10853
X25045Y10663
X25795Y9833
X26535Y10073
Y9043
X25785Y8843
X25045Y8883
X25055Y7313
X26535Y7953
X28115Y8353
X28095Y9363
X28115Y10373
X28175Y11223
X27765Y11933
X29405
X28695Y12693
X30335Y12683
X31775Y12693
X31345Y11933
X32025Y11743
X32345Y11193
X32633Y11195
X32715Y12433
X32075Y14203
X32795Y16313
X33375Y15793
X33435Y19913
X33375Y20223
X34205Y20483
Y21473
X35915Y21463
X35925Y20493
X32633Y21855
X32345Y21853
X34205Y10813
Y9823
X33375Y9563
X33435Y9253
X35465Y8993
Y7983
Y6983
X37055Y6973
Y7983
Y9003
X35925Y9833
X35915Y10803
X29085Y10343
X29205Y9353
Y8353
X28855Y6873
X28125Y7103
X31325Y6873
X25275Y12443
X21545Y10833
X21595Y9803
X20525Y9653
X21035Y8983
X21455Y8613
X20445Y8333
X19815Y8603
X19235Y8283
X19195Y7973
Y7673
Y6893
X18605Y6993
X18025Y7313
X18035Y6593
X17115Y7233
Y8243
X16035Y7983
Y6973
X14445Y6983
Y7983
Y8993
X14905Y9833
X14895Y10803
X13185Y10813
Y9823
X12355Y9563
X12415Y9253
X11613Y11195
X11325Y11193
X11005Y11743
X10325Y11933
X10755Y12693
X11695Y12433
X11765Y14753
X11175Y15273
X10635Y15853
X10185Y16293
X10305Y17533
X7835
X7105Y17763
X7095Y19013
X7075Y20023
X7095Y21033
X7155Y21883
X8065Y21003
X8185Y20013
Y19013
X8385Y16293
X6575Y16483
X6745Y11933
X7155Y11223
X7095Y10373
X8065Y10343
X8185Y9353
Y8353
X7095
X7075Y9363
X7105Y7103
X7835Y6873
X10305
X9315Y12683
X7675Y12693
X8385Y11933
X11055Y14203
X12565Y13963
X14385Y13953
X16025Y13963
X15585Y15093
X14475Y15773
X14465Y16633
X14445Y17643
Y18643
Y19653
X14905Y20493
X14895Y21463
X13185Y21473
Y20483
X12355Y20223
X12415Y19913
X11613Y21855
X11325Y21853
X11775Y16313
X12355Y15793
X16045Y16623
X16035Y17633
Y18643
Y19663
X16925Y20393
X16935Y21413
X18365Y21453
X18595Y20403
X18585Y19703
X18605Y18683
X19195Y18633
Y18333
X19235Y18943
X19815Y19263
X20445Y18993
X21035Y19643
X21455Y19273
X21595Y20463
X21545Y21493
X20025Y21513
X20525Y20313
X20405Y17553
X20115
X20085Y16943
X20515
X19495
X18935
X18945Y16373
X18915Y15653
X19680Y15732
Y16165
X20113
Y15732
X20265Y14993
X19585Y14923
X18965Y14743
X18145Y15013
X18055Y16303
X18035Y17253
X18025Y17973
X18605Y17653
X19195Y17553
X21035Y17893
X20975Y15533
X17795Y13953
X17115Y16893
Y17893
Y18903
X16935Y10753
X16925Y9733
X16035Y9003
X18585Y9043
X18595Y9743
X18365Y10793
X20025Y10853
X20115Y6893
X20405
X21035Y7233
X18605Y8023
X5515Y7953
Y9043
X4765Y8843
X4025Y8883
X4035Y7313
X4775Y9833
X5515Y10073
Y11063
X4775Y10853
X4025Y10663
X4255Y12443
X5145Y11883
X5875Y12653
X4985Y16943
X4035Y17973
X4025Y19543
X4765Y19503
X5515Y19703
Y20733
X4775Y20493
Y21513
X4025Y21323
X5515Y21723
Y18613
X5145Y22543
X4255Y23103
X5875Y23313
X4985Y27603
X4035Y28633
X4025Y30203
X4765Y30163
X5515Y30363
Y31393
X4775Y31153
Y32173
X4025Y31983
X5515Y32383
X5145Y33203
X4255Y33763
X5875Y33973
X5515Y29273
X7095Y29673
X7075Y30683
X7095Y31693
X7155Y32543
X6745Y33253
X8385
X7675Y34013
X9315Y34003
X10755Y34013
X10325Y33253
X11005Y33063
X11325Y32513
X11613Y32515
X11695Y33753
X11765Y36073
X11175Y36593
X10635Y37173
X12355Y37113
X12565Y35283
X11055Y35523
X14385Y35273
X16025Y35283
X15585Y36413
X14475Y37093
X18145Y36333
X18965Y36063
X19585Y36243
X20265Y36313
X20113Y37052
X19680
Y37485
X20113
X20975Y36853
X18915Y36973
X17795Y35273
X18365Y32113
X18595Y31063
X18585Y30363
X18605Y29343
X19195Y29293
Y28993
X19235Y29603
X19815Y29923
X20445Y29653
X21035Y30303
X21455Y29933
X21595Y31123
X21545Y32153
X20025Y32173
X20525Y30973
X20405Y28213
X20115
X20085Y27603
X20515
X19495
X18935
X18945Y27033
X18915Y26313
X19680Y26392
Y26825
X20113
Y26392
X20265Y25653
X19585Y25583
X18965Y25403
X18145Y25673
X18055Y26963
X18035Y27913
X18025Y28633
X18605Y28313
X19195Y28213
X21035Y28553
X20975Y26193
X17795Y24613
X16025Y24623
X15585Y25753
X14475Y26433
X14465Y27293
X14445Y28303
Y29303
Y30313
X14905Y31153
X14895Y32123
X13185Y32133
Y31143
X12355Y30883
X12415Y30573
X16035Y30323
Y29303
Y28293
X16045Y27283
X17115Y27553
Y28553
Y29563
X16925Y31053
X16935Y32073
X8065Y31663
X8185Y30673
Y29673
X7835Y28193
X7105Y28423
X6575Y27143
X8385Y26953
X10185
X10635Y26513
X11175Y25933
X11765Y25413
X11055Y24863
X12565Y24623
X14385Y24613
X12355Y26453
X11775Y26973
X10305Y28193
X10755Y23353
X10325Y22593
X11005Y22403
X11695Y23093
X9315Y23343
X7675Y23353
X8385Y22593
X6745
X25275Y23103
X26165Y22543
X26895Y23313
X27765Y22593
X29405
X28695Y23353
X30335Y23343
X31775Y23353
X31345Y22593
X32025Y22403
X32715Y23093
X32785Y25413
X32195Y25933
X31655Y26513
X31205Y26953
X31325Y28193
X28855
X28125Y28423
X28115Y29673
X28095Y30683
X28115Y31693
X28175Y32543
X27765Y33253
X26895Y33973
X26165Y33203
X26535Y32383
X25795Y32173
X25045Y31983
X25795Y31153
X26535Y31393
Y30363
X25785Y30163
X25045Y30203
X25055Y28633
X26005Y27603
X27595Y27143
X29405Y26953
X29205Y29673
Y30673
X29085Y31663
X29405Y33253
X28695Y34013
X30335Y34003
X31775Y34013
X31345Y33253
X32025Y33063
X32345Y32513
X32633Y32515
X32715Y33753
X32785Y36073
X32195Y36593
X31655Y37173
X33375Y37113
X33585Y35283
X32075Y35523
X35405Y35273
X37045Y35283
X36605Y36413
X35495Y37093
X35915Y32123
X35925Y31153
X35465Y30313
Y29303
Y28303
X35485Y27293
X35495Y26433
X36605Y25753
X37045Y24623
X35405Y24613
X33585Y24623
X32075Y24863
X32795Y26973
X33375Y26453
X33435Y30573
X33375Y30883
X34205Y31143
Y32133
X37055Y30323
Y29303
Y28293
X37065Y27283
X26535Y29273
X25275Y33763
X37955Y32073
X37945Y31053
X38135Y29563
Y28553
X39045Y28633
X39055Y27913
X39625Y28313
X40215Y28213
Y28993
Y29293
X40255Y29603
X39625Y29343
X39605Y30363
X39615Y31063
X39385Y32113
X41045Y32173
X42565Y32153
X42615Y31123
X41545Y30973
X42055Y30303
X42475Y29933
X41465Y29653
X40835Y29923
X41135Y28213
X41425
X41535Y27603
X41105
X40515
X39955
X39965Y27033
X39935Y26313
X40700Y26392
Y26825
X41133
Y26392
X41285Y25653
X40605Y25583
X39985Y25403
X39165Y25673
X39075Y26963
X38135Y27553
X38815Y24613
X41995Y26193
X42055Y28553
X41995Y36853
X41133Y37052
X40700
Y37485
X41133
X41285Y36313
X40605Y36243
X39985Y36063
X39935Y36973
X39165Y36333
X38815Y35273
X39075Y37623
X39965Y37693
X39955Y38263
X40515
X41105
X41535
X41425Y38873
X41135
X40215
X39625Y38973
X39045Y39293
X39055Y38573
X38135Y38213
Y39213
Y40223
X37945Y41713
X37955Y42733
X39385Y42773
X39615Y41723
X39605Y41023
X39625Y40003
X40215Y39953
Y39653
X40255Y40263
X40835Y40583
X41465Y40313
X42055Y40963
X42475Y40593
X42615Y41783
X42565Y42813
X41045Y42833
X41545Y41633
X42055Y39213
X41995Y47513
X41133Y47712
X40700
Y48145
X41133
X41105Y48923
X41535
X41425Y49533
X41135
X40215
X39625Y49633
X39045Y49953
X39055Y49233
X39075Y48283
X39965Y48353
X39955Y48923
X40515
X40215Y50313
Y50613
X40255Y50923
X39625Y50663
X39605Y51683
X39615Y52383
X37945Y52373
X38135Y50883
Y49873
Y48873
X39165Y46993
X39985Y46723
X40605Y46903
X41285Y46973
X39935Y47633
X38815Y45933
X42055Y49873
X41465Y50973
X40835Y51243
X42055Y51623
X42475Y51253
X42615Y52443
X41545Y52293
X37055Y51643
Y50623
Y49613
X37065Y48603
X35485Y48613
X35495Y47753
X36605Y47073
X37045Y45943
X35405Y45933
X33585Y45943
X32785Y46733
X32195Y47253
X31655Y47833
X31205Y48273
X31325Y49513
X28855
X28125Y49743
X28115Y50993
X28095Y52003
X28115Y53013
X29085Y52983
X29205Y51993
Y50993
X29405Y48273
X27595Y48463
X26005Y48923
X25055Y49953
X25045Y51523
X25785Y51483
X26535Y51683
Y52713
X25795Y52473
X26535Y50593
X26895Y44633
X26165Y43863
X26535Y43043
X25795Y42833
X25045Y42643
X25795Y41813
X26535Y42053
Y41023
X25785Y40823
X25045Y40863
X25055Y39293
X26005Y38263
X27595Y37803
X28125Y39083
X28855Y38853
X29405Y37613
X31205
X31325Y38853
X32795Y37633
X35485Y37953
X35465Y38963
Y39963
Y40973
X35925Y41813
X35915Y42783
X34205Y42793
Y41803
X33375Y41543
X33435Y41233
X32633Y43175
X32345Y43173
X32025Y43723
X31345Y43913
X31775Y44673
X32715Y44413
X32075Y46183
X32795Y48293
X33375Y47773
X35465Y49623
Y50623
Y51633
X35925Y52473
X34205Y52463
X33375Y52203
X33435Y51893
X30335Y44663
X28695Y44673
X29405Y43913
X27765
X28175Y43203
X28115Y42353
X29085Y42323
X29205Y41333
Y40333
X28115
X28095Y41343
X26535Y39933
X25275Y44423
X37055Y40983
Y39963
Y38953
X37065Y37943
X20515Y38263
X20085
X19495
X18935
X18945Y37693
X18055Y37623
X18035Y38573
X18025Y39293
X18605Y38973
X19195Y38873
Y39653
Y39953
X19235Y40263
X18605Y40003
X18585Y41023
X18595Y41723
X18365Y42773
X16935Y42733
X16925Y41713
X16035Y40983
Y39963
Y38953
X16045Y37943
X17115Y38213
Y39213
Y40223
X14445Y39963
Y38963
X14465Y37953
X11775Y37633
X10185Y37613
X10305Y38853
X7835
X7105Y39083
X7095Y40333
X7075Y41343
X7095Y42353
X7155Y43203
X6745Y43913
X8385
X7675Y44673
X9315Y44663
X10755Y44673
X10325Y43913
X11005Y43723
X11325Y43173
X11613Y43175
X11695Y44413
X11765Y46733
X11175Y47253
X10635Y47833
X10185Y48273
X10305Y49513
X7835
X7105Y49743
X7095Y50993
X7075Y52003
X7095Y53013
X8065Y52983
X8185Y51993
Y50993
X8385Y48273
X6575Y48463
X11775Y48293
X12355Y47773
X12565Y45943
X11055Y46183
X14385Y45933
X16025Y45943
X15585Y47073
X14475Y47753
X14465Y48613
X14445Y49623
Y50623
Y51633
X14905Y52473
X13185Y52463
X12355Y52203
X12415Y51893
X16035Y51643
Y50623
Y49613
X16045Y48603
X17115Y48873
Y49873
X18025Y49953
X18035Y49233
X18605Y49633
X19195Y49533
Y50313
Y50613
X19235Y50923
X18605Y50663
X18585Y51683
X18595Y52383
X16925Y52373
X17115Y50883
X19815Y51243
X20445Y50973
X21035Y51623
X21455Y51253
X21595Y52443
X20525Y52293
X20405Y49533
X20115
X20085Y48923
X20515
X19495
X18935
X18945Y48353
X18915Y47633
X19680Y47712
Y48145
X20113
Y47712
X20265Y46973
X19585Y46903
X18965Y46723
X18145Y46993
X18055Y48283
X17795Y45933
X20975Y47513
X21035Y49873
X21545Y42813
X21595Y41783
X20525Y41633
X21035Y40963
X21455Y40593
X20445Y40313
X19815Y40583
X20115Y38873
X20405
X21035Y39213
X20025Y42833
X14895Y42783
X14905Y41813
X14445Y40973
X13185Y41803
Y42793
X12355Y41543
X12415Y41233
X8185Y41333
Y40333
X8065Y42323
X8385Y37613
X6575Y37803
X4985Y38263
X4035Y39293
X4025Y40863
X4765Y40823
X5515Y41023
Y42053
X4775Y41813
Y42833
X4025Y42643
X5515Y43043
X5145Y43863
X4255Y44423
X5875Y44633
X5515Y39933
X4985Y48923
X4035Y49953
X4025Y51523
X4765Y51483
X5515Y51683
Y52713
X4775Y52473
X5515Y50593
Y53703
X4775Y53493
X4025Y53303
X4255Y55083
X5145Y54523
X5875Y55293
X4985Y59583
X4035Y60613
X4025Y62183
X4765Y62143
X5515Y62343
Y63373
X4775Y63133
Y64153
X4025Y63963
X5515Y64363
X5145Y65183
X4255Y65743
X5875Y65953
X5515Y61253
X7095Y61653
X7075Y62663
X7095Y63673
X7155Y64523
X6745Y65233
X8385
X7675Y65993
X9315Y65983
X10755Y65993
X10325Y65233
X11005Y65043
X11325Y64493
X11613Y64495
X11695Y65733
X11765Y68053
X11175Y68573
X11055Y67503
X12565Y67263
X14385Y67253
X16025Y67263
X15585Y68393
X18145Y68313
X18965Y68043
X19585Y68223
X20265Y68293
X20975Y68833
X17795Y67253
X18365Y64093
X18595Y63043
X18585Y62343
X18605Y61323
X19195Y61273
Y60973
X19235Y61583
X19815Y61903
X20445Y61633
X21035Y62283
X21455Y61913
X21595Y63103
X21545Y64133
X20025Y64153
X20525Y62953
X20405Y60193
X20115
X20085Y59583
X20515
X19495
X18935
X18945Y59013
X18915Y58293
X19680Y58372
Y58805
X20113
Y58372
X20265Y57633
X19585Y57563
X18965Y57383
X18145Y57653
X18055Y58943
X18035Y59893
X18025Y60613
X18605Y60293
X19195Y60193
X21035Y60533
X20975Y58173
X17795Y56593
X16025Y56603
X15585Y57733
X14475Y58413
X14465Y59273
X14445Y60283
Y61283
Y62293
X14905Y63133
X14895Y64103
X13185Y64113
Y63123
X12355Y62863
X12415Y62553
X16035Y62303
Y61283
Y60273
X16045Y59263
X17115Y59533
Y60533
Y61543
X16925Y63033
X16935Y64053
X8065Y63643
X8185Y62653
Y61653
X7835Y60173
X7105Y60403
X6575Y59123
X8385Y58933
X10185
X10635Y58493
X11175Y57913
X11765Y57393
X11055Y56843
X12565Y56603
X14385Y56593
X14895Y53443
X13185Y53453
X11613Y53835
X11325Y53833
X11005Y54383
X10325Y54573
X10755Y55333
X11695Y55073
X9315Y55323
X7675Y55333
X8385Y54573
X6745
X7155Y53863
X10305Y60173
X11775Y58953
X12355Y58433
X16935Y53393
X18365Y53433
X20025Y53493
X21545Y53473
X25045Y53303
X25795Y53493
X26535Y53703
X26165Y54523
X25275Y55083
X26895Y55293
X27765Y54573
X28175Y53863
X29405Y54573
X28695Y55333
X30335Y55323
X31775Y55333
X31345Y54573
X32025Y54383
X32345Y53833
X32633Y53835
X32715Y55073
X32785Y57393
X32195Y57913
X31655Y58493
X31205Y58933
X31325Y60173
X28855
X28125Y60403
X28115Y61653
X28095Y62663
X28115Y63673
X28175Y64523
X27765Y65233
X26895Y65953
X26165Y65183
X26535Y64363
X25795Y64153
X25045Y63963
X25795Y63133
X26535Y63373
Y62343
X25785Y62143
X25045Y62183
X25055Y60613
X26005Y59583
X27595Y59123
X29405Y58933
X29205Y61653
Y62653
X29085Y63643
X29405Y65233
X28695Y65993
X30335Y65983
X31775Y65993
X31345Y65233
X32025Y65043
X32345Y64493
X32633Y64495
X32715Y65733
X32785Y68053
X32195Y68573
X32075Y67503
X33585Y67263
X35405Y67253
X37045Y67263
X36605Y68393
X35915Y64103
X35925Y63133
X35465Y62293
Y61283
Y60283
X35485Y59273
X35495Y58413
X36605Y57733
X37045Y56603
X35405Y56593
X33585Y56603
X32075Y56843
X32795Y58953
X33375Y58433
X33435Y62553
X33375Y62863
X34205Y63123
Y64113
X37055Y62303
Y61283
Y60273
X37065Y59263
X35915Y53443
X34205Y53453
X26535Y61253
X25275Y65743
X37955Y64053
X37945Y63033
X38135Y61543
Y60533
X39045Y60613
X39055Y59893
X39625Y60293
X40215Y60193
Y60973
Y61273
X40255Y61583
X39625Y61323
X39605Y62343
X39615Y63043
X39385Y64093
X41045Y64153
X42565Y64133
X42615Y63103
X41545Y62953
X42055Y62283
X42475Y61913
X41465Y61633
X40835Y61903
X41135Y60193
X41425
X41535Y59583
X41105
X40515
X39955
X39965Y59013
X39935Y58293
X40700Y58372
Y58805
X41133
Y58372
X41285Y57633
X40605Y57563
X39985Y57383
X39165Y57653
X39075Y58943
X38135Y59533
X38815Y56593
X39385Y53433
X37955Y53393
X41045Y53493
X42565Y53473
X41995Y58173
X42055Y60533
X41995Y68833
X41285Y68293
X40605Y68223
X39985Y68043
X39165Y68313
X38815Y67253
X39075Y69603
X39965Y69673
X39955Y70243
X40515
X41105
X41535
X41425Y70853
X41135
X40215
X39625Y70953
X39045Y71273
X39055Y70553
X38135Y70193
Y71193
Y72203
X37945Y73693
X37955Y74713
X39385Y74753
X39615Y73703
X39605Y73003
X39625Y71983
X40215Y71933
Y71633
X40255Y72243
X40835Y72563
X41465Y72293
X42055Y72943
X42475Y72573
X42615Y73763
X42565Y74793
X41045Y74813
X41545Y73613
X42055Y71193
X41133Y69465
X40700
Y69032
X41133
X39935Y68953
X37065Y69923
X37055Y70933
Y71943
Y72963
X35465Y72953
Y71943
Y70943
X35485Y69933
X35495Y69073
X33375Y69093
X32795Y69613
X31655Y69153
X31205Y69593
X31325Y70833
X28855
X28125Y71063
X28115Y72313
X28095Y73323
X28115Y74333
X28175Y75183
X27765Y75893
X26895Y76613
X26165Y75843
X26535Y75023
X25795Y74813
X25045Y74623
X25795Y73793
X26535Y74033
Y73003
X25785Y72803
X25045Y72843
X25055Y71273
X26005Y70243
X27595Y69783
X29405Y69593
X29205Y72313
Y73313
X29085Y74303
X29405Y75893
X28695Y76653
X30335Y76643
X31775Y76653
X31345Y75893
X32025Y75703
X32345Y75153
X32633Y75155
X32715Y76393
X34205Y74773
Y73783
X33375Y73523
X33435Y73213
X35925Y73793
X35915Y74763
X26535Y71913
X25275Y76403
X21545Y74793
X21595Y73763
X20525Y73613
X21035Y72943
X21455Y72573
X20445Y72293
X19815Y72563
X19235Y72243
X19195Y71933
Y71633
Y70853
X18605Y70953
X18025Y71273
X18035Y70553
X18055Y69603
X18945Y69673
X18935Y70243
X19495
X20085
X20515
X20405Y70853
X20115
X21035Y71193
X20113Y69465
X19680
Y69032
X20113
X18915Y68953
X17115Y70193
Y71193
Y72203
X16035Y71943
Y70933
X16045Y69923
X14465Y69933
X14475Y69073
X14445Y70943
Y71943
Y72953
X14905Y73793
X14895Y74763
X13185Y74773
Y73783
X12355Y73523
X12415Y73213
X11613Y75155
X11325Y75153
X11005Y75703
X10325Y75893
X10755Y76653
X11695Y76393
X9315Y76643
X7675Y76653
X8385Y75893
X6745
X7155Y75183
X7095Y74333
X8065Y74303
X8185Y73313
Y72313
X7095
X7075Y73323
X7105Y71063
X7835Y70833
X8385Y69593
X10185
X10635Y69153
X11775Y69613
X12355Y69093
X10305Y70833
X6575Y69783
X16035Y72963
X16925Y73693
X16935Y74713
X18365Y74753
X18595Y73703
X18585Y73003
X18605Y71983
X20025Y74813
X5515Y75023
X4775Y74813
X4025Y74623
X4775Y73793
X5515Y74033
Y73003
X4765Y72803
X4025Y72843
X4035Y71273
X4985Y70243
X5515Y71913
X5145Y75843
X4255Y76403
X5875Y76613
T02
X12895Y4973
Y5973
X13895
Y4973
X16615
Y5973
X17615
Y4973
X33915
Y5973
X34915
Y4973
X37635
Y5973
X38635
Y4973
Y6973
Y7973
Y8973
X37635
Y7973
Y6973
Y15633
Y16633
Y17633
Y18633
Y19633
X38635
Y18633
Y17633
Y16633
Y15633
X34915
Y16633
Y17633
Y18633
Y19633
X33915
Y18633
Y17633
Y16633
Y15633
X30777Y18010
X29777
Y19010
X30777
Y20010
X29777
Y21010
X30777
X27027
Y20010
Y19010
Y18010
X26027
Y19010
Y20010
Y21010
Y11350
Y10350
Y9350
Y8350
Y7350
X27027
Y8350
Y9350
Y10350
Y11350
X29777
Y10350
Y9350
Y8350
Y7350
X30777
Y8350
Y9350
Y10350
Y11350
X33915Y8973
X34915
Y7973
X33915
Y6973
X34915
X17615
Y7973
Y8973
X16615
Y7973
Y6973
X13895
Y7973
Y8973
X12895
Y7973
Y6973
X9757Y7350
X8757
Y8350
X9757
Y9350
X8757
Y10350
X9757
Y11350
X8757
Y18010
X9757
Y19010
X8757
Y20010
X9757
Y21010
X8757
X12895Y19633
X13895
Y18633
X12895
Y17633
X13895
Y16633
X12895
Y15633
X13895
X16615
Y16633
Y17633
Y18633
Y19633
X17615
Y18633
Y17633
Y16633
Y15633
X6007Y18010
X5007
Y19010
X6007
Y20010
X5007
Y21010
X6007
Y11350
Y10350
Y9350
Y8350
Y7350
X5007
Y8350
Y9350
Y10350
Y11350
Y22010
X6007
Y28670
X5007
Y29670
X6007
Y30670
X5007
Y31670
X6007
Y32670
X5007
X8757
Y31670
Y30670
Y29670
Y28670
X9757
Y29670
Y30670
Y31670
Y32670
X12895Y30293
X13895
Y29293
X12895
Y28293
X13895
Y27293
X12895
Y26293
X13895
X16615
Y27293
Y28293
Y29293
Y30293
X17615
Y29293
Y28293
Y27293
Y26293
Y36953
X16615
X13895
X12895
X9757Y22010
X8757
X26027
X27027
X29777
X30777
Y28670
X29777
Y29670
X30777
Y30670
X29777
Y31670
X30777
Y32670
X29777
X27027
Y31670
Y30670
Y29670
Y28670
X26027
Y29670
Y30670
Y31670
Y32670
X33915Y30293
X34915
Y29293
X33915
Y28293
X34915
Y27293
X33915
Y26293
X34915
Y36953
X33915
X37635
X38635
Y30293
X37635
Y29293
X38635
Y28293
X37635
Y27293
X38635
Y26293
X37635
Y37953
Y38953
Y39953
Y40953
X38635
Y39953
Y38953
Y37953
Y47613
Y48613
Y49613
Y50613
Y51613
X37635
Y50613
Y49613
Y48613
Y47613
X34915
Y48613
Y49613
Y50613
Y51613
X33915
Y50613
Y49613
Y48613
Y47613
X30777Y49990
X29777
Y50990
X30777
Y51990
X29777
Y52990
X30777
X27027
Y51990
Y50990
Y49990
X26027
Y50990
Y51990
Y52990
Y43330
Y42330
Y41330
Y40330
Y39330
X27027
Y40330
Y41330
Y42330
Y43330
X29777
Y42330
Y41330
Y40330
Y39330
X30777
Y40330
Y41330
Y42330
Y43330
X33915Y40953
X34915
Y39953
X33915
Y38953
X34915
Y37953
X33915
X17615
Y38953
Y39953
Y40953
X16615
Y39953
Y38953
Y37953
X13895
Y38953
Y39953
Y40953
X12895
Y39953
Y38953
Y37953
X9757Y39330
X8757
Y40330
X9757
Y41330
X8757
Y42330
X9757
Y43330
X8757
Y49990
X9757
Y50990
X8757
Y51990
X9757
Y52990
X8757
X12895Y51613
X13895
Y50613
X12895
Y49613
X13895
Y48613
X12895
Y47613
X13895
X16615
Y48613
Y49613
Y50613
Y51613
X17615
Y50613
Y49613
Y48613
Y47613
X6007Y49990
X5007
Y50990
X6007
Y51990
X5007
Y52990
X6007
Y43330
Y42330
Y41330
Y40330
Y39330
X5007
Y40330
Y41330
Y42330
Y43330
Y53990
X6007
Y60650
X5007
Y61650
X6007
Y62650
X5007
Y63650
X6007
Y64650
X5007
X8757
Y63650
Y62650
Y61650
Y60650
X9757
Y61650
Y62650
Y63650
Y64650
X12895Y62273
X13895
Y61273
X12895
Y60273
X13895
Y59273
X12895
Y58273
X13895
X16615
Y59273
Y60273
Y61273
Y62273
X17615
Y61273
Y60273
Y59273
Y58273
X9757Y53990
X8757
X26027
X27027
X29777
X30777
Y60650
X29777
Y61650
X30777
Y62650
X29777
Y63650
X30777
Y64650
X29777
X27027
Y63650
Y62650
Y61650
Y60650
X26027
Y61650
Y62650
Y63650
Y64650
X33915Y62273
X34915
Y61273
X33915
Y60273
X34915
Y59273
X33915
Y58273
X34915
X37635
Y59273
Y60273
Y61273
Y62273
X38635
Y61273
Y60273
Y59273
Y58273
Y68933
Y69933
Y70933
Y71933
Y72933
X37635
Y71933
Y70933
Y69933
Y68933
X34915
Y69933
Y70933
Y71933
Y72933
X33915
Y71933
Y70933
Y69933
Y68933
X30777Y71310
X29777
Y72310
X30777
Y73310
X29777
Y74310
X30777
Y75310
X29777
X27027
Y74310
Y73310
Y72310
Y71310
X26027
Y72310
Y73310
Y74310
Y75310
X17615Y72933
X16615
Y71933
X17615
Y70933
X16615
Y69933
X17615
Y68933
X16615
X13895
Y69933
Y70933
Y71933
Y72933
X12895
Y71933
Y70933
Y69933
Y68933
X9757Y71310
X8757
Y72310
X9757
Y73310
X8757
Y74310
X9757
Y75310
X8757
X6007
Y74310
Y73310
Y72310
Y71310
X5007
Y72310
Y73310
Y74310
Y75310
T03
X1329Y1330
X44650
X45108Y78588
X1329
M30
