G04 Layer_Color=32896*
%FSLAX24Y24*%
%MOIN*%
G70*
G01*
G75*
%ADD12C,0.0100*%
%ADD41C,0.0060*%
G54D12*
X46000Y-1772D02*
Y-150D01*
X0Y-1772D02*
Y-150D01*
X25149Y-1672D02*
X46000D01*
X0D02*
X20531D01*
X45400Y-1472D02*
X46000Y-1672D01*
X45400Y-1872D02*
X46000Y-1672D01*
X0D02*
X600Y-1872D01*
X0Y-1672D02*
X600Y-1472D01*
X-1172Y79917D02*
X-150D01*
X-1172Y0D02*
X-150D01*
X-1072Y42208D02*
Y79917D01*
Y0D02*
Y37389D01*
X-1272Y79317D02*
X-1072Y79917D01*
X-872Y79317D01*
X-1072Y0D02*
X-872Y600D01*
X-1272D02*
X-1072Y0D01*
X4327Y86125D02*
Y86725D01*
X4627D01*
X4727Y86625D01*
Y86425D01*
X4627Y86325D01*
X4327D01*
X5027Y86525D02*
X5226D01*
X5326Y86425D01*
Y86125D01*
X5027D01*
X4927Y86225D01*
X5027Y86325D01*
X5326D01*
X5526Y86125D02*
Y86525D01*
X5826D01*
X5926Y86425D01*
Y86125D01*
X6426D02*
X6226D01*
X6126Y86225D01*
Y86425D01*
X6226Y86525D01*
X6426D01*
X6526Y86425D01*
Y86325D01*
X6126D01*
X6726Y86125D02*
X6926D01*
X6826D01*
Y86725D01*
X6726D01*
X7826D02*
Y86125D01*
X8126D01*
X8226Y86225D01*
Y86625D01*
X8126Y86725D01*
X7826D01*
X8425Y86125D02*
X8625D01*
X8525D01*
Y86525D01*
X8425D01*
X8925Y86125D02*
Y86525D01*
X9025D01*
X9125Y86425D01*
Y86125D01*
Y86425D01*
X9225Y86525D01*
X9325Y86425D01*
Y86125D01*
X9825D02*
X9625D01*
X9525Y86225D01*
Y86425D01*
X9625Y86525D01*
X9825D01*
X9925Y86425D01*
Y86325D01*
X9525D01*
X10125Y86125D02*
Y86525D01*
X10425D01*
X10525Y86425D01*
Y86125D01*
X10725D02*
X11025D01*
X11125Y86225D01*
X11025Y86325D01*
X10825D01*
X10725Y86425D01*
X10825Y86525D01*
X11125D01*
X11325Y86125D02*
X11524D01*
X11424D01*
Y86525D01*
X11325D01*
X11924Y86125D02*
X12124D01*
X12224Y86225D01*
Y86425D01*
X12124Y86525D01*
X11924D01*
X11824Y86425D01*
Y86225D01*
X11924Y86125D01*
X12424D02*
Y86525D01*
X12724D01*
X12824Y86425D01*
Y86125D01*
G54D41*
X20691Y-2032D02*
X20891D01*
X20791D01*
Y-1432D01*
X20691Y-1532D01*
X21191Y-2032D02*
X21390D01*
X21291D01*
Y-1432D01*
X21191Y-1532D01*
X22090Y-1432D02*
X21890Y-1532D01*
X21690Y-1732D01*
Y-1932D01*
X21790Y-2032D01*
X21990D01*
X22090Y-1932D01*
Y-1832D01*
X21990Y-1732D01*
X21690D01*
X22290Y-2032D02*
Y-1932D01*
X22390D01*
Y-2032D01*
X22290D01*
X22790Y-1532D02*
X22890Y-1432D01*
X23090D01*
X23190Y-1532D01*
Y-1632D01*
X23090Y-1732D01*
X23190Y-1832D01*
Y-1932D01*
X23090Y-2032D01*
X22890D01*
X22790Y-1932D01*
Y-1832D01*
X22890Y-1732D01*
X22790Y-1632D01*
Y-1532D01*
X22890Y-1732D02*
X23090D01*
X23690Y-2032D02*
Y-1432D01*
X23390Y-1732D01*
X23790D01*
X23990Y-2032D02*
Y-1632D01*
X24090D01*
X24190Y-1732D01*
Y-2032D01*
Y-1732D01*
X24290Y-1632D01*
X24390Y-1732D01*
Y-2032D01*
X24589D02*
Y-1632D01*
X24689D01*
X24789Y-1732D01*
Y-2032D01*
Y-1732D01*
X24889Y-1632D01*
X24989Y-1732D01*
Y-2032D01*
X-712Y37949D02*
Y37549D01*
X-1112Y37949D01*
X-1212D01*
X-1312Y37849D01*
Y37649D01*
X-1212Y37549D01*
Y38149D02*
X-1312Y38249D01*
Y38449D01*
X-1212Y38549D01*
X-812D01*
X-712Y38449D01*
Y38249D01*
X-812Y38149D01*
X-1212D01*
X-712Y39148D02*
Y38749D01*
X-1112Y39148D01*
X-1212D01*
X-1312Y39049D01*
Y38849D01*
X-1212Y38749D01*
X-712Y39348D02*
X-812D01*
Y39448D01*
X-712D01*
Y39348D01*
X-812Y39848D02*
X-712Y39948D01*
Y40148D01*
X-812Y40248D01*
X-1212D01*
X-1312Y40148D01*
Y39948D01*
X-1212Y39848D01*
X-1112D01*
X-1012Y39948D01*
Y40248D01*
X-812Y40448D02*
X-712Y40548D01*
Y40748D01*
X-812Y40848D01*
X-1212D01*
X-1312Y40748D01*
Y40548D01*
X-1212Y40448D01*
X-1112D01*
X-1012Y40548D01*
Y40848D01*
X-712Y41048D02*
X-1112D01*
Y41148D01*
X-1012Y41248D01*
X-712D01*
X-1012D01*
X-1112Y41348D01*
X-1012Y41448D01*
X-712D01*
Y41648D02*
X-1112D01*
Y41748D01*
X-1012Y41848D01*
X-712D01*
X-1012D01*
X-1112Y41948D01*
X-1012Y42048D01*
X-712D01*
M02*
